<svg width="452" height="365" viewBox="0 0 452 365" fill="none" xmlns="http://www.w3.org/2000/svg">
<g clip-path="url(#clip0_3445_23325)">
<rect width="452" height="365" fill="white"/>
<g clip-path="url(#clip1_3445_23325)">
<rect width="867" height="69" transform="translate(79 40)" fill="white"/>
<mask id="path-1-inside-1_3445_23325" fill="white">
<path d="M95 62C95 58.6863 97.6863 56 101 56H216V93H101C97.6863 93 95 90.3137 95 87V62Z"/>
</mask>
<path d="M95 62C95 58.6863 97.6863 56 101 56H216V93H101C97.6863 93 95 90.3137 95 87V62Z" fill="white"/>
<path d="M216 56H217V55H216V56ZM216 93V94H217V93H216ZM101 56V57H216V56V55H101V56ZM216 56H215V93H216H217V56H216ZM216 93V92H101V93V94H216V93ZM95 87H96V62H95H94V87H95ZM101 93V92C98.2386 92 96 89.7614 96 87H95H94C94 90.866 97.134 94 101 94V93ZM101 56V55C97.134 55 94 58.134 94 62H95H96C96 59.2386 98.2386 57 101 57V56Z" fill="#C7C7C7" mask="url(#path-1-inside-1_3445_23325)"/>
<path d="M111 70.5C111 68.2909 112.791 66.5 115 66.5H123C125.209 66.5 127 68.2909 127 70.5V78.5C127 80.7091 125.209 82.5 123 82.5H115C112.791 82.5 111 80.7091 111 78.5V70.5Z" fill="#0066CC"/>
<path d="M124.143 73C124.616 73 125 73.3841 125 73.8574V74.7139C125 75.1872 124.616 75.5713 124.143 75.5713H113.857C113.384 75.5713 113 75.1872 113 74.7139V73.8574C113 73.3841 113.384 73 113.857 73H124.143Z" fill="white"/>
<path d="M138.85 79.154C137.562 79.154 136.451 78.7107 135.518 77.824L136.148 77.138C136.577 77.5393 137.002 77.8333 137.422 78.02C137.851 78.1973 138.332 78.286 138.864 78.286C139.34 78.286 139.76 78.188 140.124 77.992C140.488 77.796 140.768 77.5207 140.964 77.166C141.169 76.8113 141.272 76.4053 141.272 75.948C141.272 75.2947 141.048 74.7673 140.6 74.366C140.161 73.9647 139.583 73.764 138.864 73.764C138.491 73.764 138.127 73.8107 137.772 73.904C137.417 73.988 137.049 74.128 136.666 74.324L135.966 74.1L136.19 69.2H141.762V70.082H137.058L136.904 73.47C137.277 73.2833 137.637 73.1527 137.982 73.078C138.327 72.994 138.691 72.952 139.074 72.952C139.718 72.952 140.278 73.078 140.754 73.33C141.239 73.5727 141.613 73.918 141.874 74.366C142.145 74.8047 142.28 75.318 142.28 75.906C142.28 76.55 142.135 77.1147 141.846 77.6C141.557 78.0853 141.155 78.468 140.642 78.748C140.129 79.0187 139.531 79.154 138.85 79.154ZM149.416 79.14C148.856 79.14 148.338 79.056 147.862 78.888C147.386 78.7107 146.98 78.4587 146.644 78.132L147.19 77.46C147.601 77.7587 147.979 77.978 148.324 78.118C148.669 78.2487 149.024 78.314 149.388 78.314C149.883 78.314 150.293 78.1973 150.62 77.964C150.947 77.7307 151.11 77.432 151.11 77.068C151.11 76.788 151.012 76.5687 150.816 76.41C150.629 76.2513 150.317 76.13 149.878 76.046L148.758 75.85C148.095 75.7287 147.605 75.5233 147.288 75.234C146.98 74.9447 146.826 74.5527 146.826 74.058C146.826 73.666 146.929 73.3207 147.134 73.022C147.349 72.7233 147.643 72.49 148.016 72.322C148.389 72.1447 148.814 72.056 149.29 72.056C149.757 72.056 150.2 72.126 150.62 72.266C151.04 72.3967 151.465 72.6113 151.894 72.91L151.39 73.624C151.035 73.372 150.681 73.19 150.326 73.078C149.971 72.9567 149.612 72.896 149.248 72.896C148.8 72.896 148.441 72.994 148.17 73.19C147.899 73.386 147.764 73.652 147.764 73.988C147.764 74.268 147.848 74.4827 148.016 74.632C148.193 74.7813 148.501 74.8933 148.94 74.968L150.088 75.178C150.779 75.2993 151.283 75.5093 151.6 75.808C151.917 76.1067 152.076 76.508 152.076 77.012C152.076 77.4133 151.959 77.7773 151.726 78.104C151.493 78.4213 151.175 78.6733 150.774 78.86C150.373 79.0467 149.92 79.14 149.416 79.14ZM156.78 79.14C156.146 79.14 155.572 78.986 155.058 78.678C154.545 78.3607 154.139 77.936 153.84 77.404C153.542 76.8627 153.392 76.256 153.392 75.584C153.392 74.912 153.532 74.31 153.812 73.778C154.102 73.246 154.489 72.826 154.974 72.518C155.46 72.21 156.001 72.056 156.598 72.056C157.205 72.056 157.742 72.21 158.208 72.518C158.684 72.8167 159.058 73.2273 159.328 73.75C159.608 74.2633 159.748 74.8467 159.748 75.5V75.808H154.386C154.424 76.2747 154.55 76.6947 154.764 77.068C154.988 77.432 155.278 77.7213 155.632 77.936C155.996 78.1413 156.393 78.244 156.822 78.244C157.177 78.244 157.518 78.1833 157.844 78.062C158.18 77.9313 158.465 77.7587 158.698 77.544L159.342 78.23C158.95 78.538 158.544 78.7667 158.124 78.916C157.704 79.0653 157.256 79.14 156.78 79.14ZM154.414 75.08H158.74C158.694 74.6693 158.568 74.3053 158.362 73.988C158.166 73.6613 157.914 73.4047 157.606 73.218C157.308 73.0313 156.972 72.938 156.598 72.938C156.225 72.938 155.884 73.0313 155.576 73.218C155.268 73.3953 155.012 73.6473 154.806 73.974C154.61 74.2913 154.48 74.66 154.414 75.08ZM161.493 79V68.892L162.515 68.682V79H161.493ZM167.691 79.14C167.056 79.14 166.482 78.986 165.969 78.678C165.455 78.3607 165.049 77.936 164.751 77.404C164.452 76.8627 164.303 76.256 164.303 75.584C164.303 74.912 164.443 74.31 164.723 73.778C165.012 73.246 165.399 72.826 165.885 72.518C166.37 72.21 166.911 72.056 167.509 72.056C168.115 72.056 168.652 72.21 169.119 72.518C169.595 72.8167 169.968 73.2273 170.239 73.75C170.519 74.2633 170.659 74.8467 170.659 75.5V75.808H165.297C165.334 76.2747 165.46 76.6947 165.675 77.068C165.899 77.432 166.188 77.7213 166.543 77.936C166.907 78.1413 167.303 78.244 167.733 78.244C168.087 78.244 168.428 78.1833 168.755 78.062C169.091 77.9313 169.375 77.7587 169.609 77.544L170.253 78.23C169.861 78.538 169.455 78.7667 169.035 78.916C168.615 79.0653 168.167 79.14 167.691 79.14ZM165.325 75.08H169.651C169.604 74.6693 169.478 74.3053 169.273 73.988C169.077 73.6613 168.825 73.4047 168.517 73.218C168.218 73.0313 167.882 72.938 167.509 72.938C167.135 72.938 166.795 73.0313 166.487 73.218C166.179 73.3953 165.922 73.6473 165.717 73.974C165.521 74.2913 165.39 74.66 165.325 75.08ZM175.47 79.112C174.835 79.112 174.261 78.958 173.748 78.65C173.244 78.3327 172.842 77.908 172.544 77.376C172.245 76.8347 172.096 76.2373 172.096 75.584C172.096 74.9213 172.245 74.324 172.544 73.792C172.842 73.26 173.244 72.84 173.748 72.532C174.261 72.2147 174.835 72.056 175.47 72.056C175.974 72.056 176.454 72.1493 176.912 72.336C177.369 72.5227 177.766 72.784 178.102 73.12L177.444 73.834C177.201 73.5633 176.907 73.3533 176.562 73.204C176.216 73.0547 175.866 72.98 175.512 72.98C175.064 72.98 174.658 73.0967 174.294 73.33C173.939 73.5633 173.654 73.876 173.44 74.268C173.225 74.66 173.118 75.0987 173.118 75.584C173.118 76.0693 173.225 76.508 173.44 76.9C173.654 77.292 173.939 77.6047 174.294 77.838C174.658 78.0713 175.064 78.188 175.512 78.188C175.866 78.188 176.216 78.1133 176.562 77.964C176.907 77.8053 177.201 77.5953 177.444 77.334L178.102 78.048C177.766 78.384 177.369 78.6453 176.912 78.832C176.454 79.0187 175.974 79.112 175.47 79.112ZM182.267 79.14C181.679 79.14 181.231 79 180.923 78.72C180.625 78.4307 180.475 78.0153 180.475 77.474V73.008H179.061V72.168H180.475V70.292L181.497 70.054V72.168H183.457V73.008H181.497V77.208C181.497 77.572 181.572 77.8333 181.721 77.992C181.88 78.1507 182.137 78.23 182.491 78.23C182.669 78.23 182.827 78.216 182.967 78.188C183.107 78.16 183.271 78.1133 183.457 78.048V78.958C183.271 79.0233 183.075 79.07 182.869 79.098C182.664 79.126 182.463 79.14 182.267 79.14ZM187.898 79.14C187.263 79.14 186.689 78.986 186.176 78.678C185.662 78.3607 185.256 77.936 184.958 77.404C184.659 76.8627 184.51 76.256 184.51 75.584C184.51 74.912 184.65 74.31 184.93 73.778C185.219 73.246 185.606 72.826 186.092 72.518C186.577 72.21 187.118 72.056 187.716 72.056C188.322 72.056 188.859 72.21 189.326 72.518C189.802 72.8167 190.175 73.2273 190.446 73.75C190.726 74.2633 190.866 74.8467 190.866 75.5V75.808H185.504C185.541 76.2747 185.667 76.6947 185.882 77.068C186.106 77.432 186.395 77.7213 186.75 77.936C187.114 78.1413 187.51 78.244 187.94 78.244C188.294 78.244 188.635 78.1833 188.962 78.062C189.298 77.9313 189.582 77.7587 189.816 77.544L190.46 78.23C190.068 78.538 189.662 78.7667 189.242 78.916C188.822 79.0653 188.374 79.14 187.898 79.14ZM185.532 75.08H189.858C189.811 74.6693 189.685 74.3053 189.48 73.988C189.284 73.6613 189.032 73.4047 188.724 73.218C188.425 73.0313 188.089 72.938 187.716 72.938C187.342 72.938 187.002 73.0313 186.694 73.218C186.386 73.3953 186.129 73.6473 185.924 73.974C185.728 74.2913 185.597 74.66 185.532 75.08ZM195.453 79.098C194.865 79.098 194.333 78.944 193.857 78.636C193.381 78.3187 193.003 77.8987 192.723 77.376C192.443 76.844 192.303 76.2513 192.303 75.598C192.303 74.9353 192.443 74.3427 192.723 73.82C193.012 73.288 193.399 72.868 193.885 72.56C194.37 72.2427 194.911 72.084 195.509 72.084C195.929 72.084 196.321 72.168 196.685 72.336C197.049 72.4947 197.366 72.728 197.637 73.036V68.892L198.659 68.682V79H197.637V78.09C197.375 78.4167 197.058 78.6687 196.685 78.846C196.311 79.014 195.901 79.098 195.453 79.098ZM195.705 78.202C196.106 78.202 196.475 78.1227 196.811 77.964C197.147 77.8053 197.422 77.5813 197.637 77.292V73.904C197.413 73.6147 197.128 73.3907 196.783 73.232C196.447 73.064 196.087 72.98 195.705 72.98C195.247 72.98 194.837 73.092 194.473 73.316C194.118 73.54 193.833 73.848 193.619 74.24C193.413 74.632 193.311 75.08 193.311 75.584C193.311 76.0787 193.413 76.5267 193.619 76.928C193.833 77.32 194.118 77.6327 194.473 77.866C194.837 78.09 195.247 78.202 195.705 78.202Z" fill="#151515"/>
<mask id="path-6-inside-2_3445_23325" fill="white">
<path d="M215 56H255C258.314 56 261 58.6863 261 62V87C261 90.3137 258.314 93 255 93H215V56Z"/>
</mask>
<path d="M215 56H255C258.314 56 261 58.6863 261 62V87C261 90.3137 258.314 93 255 93H215V56Z" fill="white"/>
<path d="M215 56V55H214V56H215ZM215 93H214V94H215V93ZM215 56V57H255V56V55H215V56ZM261 62H260V87H261H262V62H261ZM255 93V92H215V93V94H255V93ZM215 93H216V56H215H214V93H215ZM261 87H260C260 89.7614 257.761 92 255 92V93V94C258.866 94 262 90.866 262 87H261ZM255 56V57C257.761 57 260 59.2386 260 62H261H262C262 58.134 258.866 55 255 55V56Z" fill="#C7C7C7" mask="url(#path-6-inside-2_3445_23325)"/>
<path d="M241.534 72.167C242.023 72.1672 242.267 72.7618 241.921 73.1104L238.389 76.6719C238.174 76.8874 237.825 76.8875 237.611 76.6719L234.079 73.1104C233.733 72.7617 233.978 72.167 234.467 72.167H241.534Z" fill="#1F1F1F"/>
<path d="M277 74.5C277 64.2827 285.283 56 295.5 56H408.5C418.717 56 427 64.2827 427 74.5V74.5C427 84.7173 418.717 93 408.5 93H295.5C285.283 93 277 84.7173 277 74.5V74.5Z" fill="#0066CC"/>
<path d="M301.126 79L305.004 69.2H306.292L310.114 79H308.952L307.79 75.92H303.422L302.26 79H301.126ZM303.758 75.066H307.468L305.606 70.18L303.758 75.066ZM313.861 79.098C313.273 79.098 312.741 78.944 312.265 78.636C311.789 78.3187 311.411 77.8987 311.131 77.376C310.851 76.844 310.711 76.2513 310.711 75.598C310.711 74.9353 310.851 74.3427 311.131 73.82C311.42 73.288 311.807 72.868 312.293 72.56C312.778 72.2427 313.319 72.084 313.917 72.084C314.337 72.084 314.729 72.168 315.093 72.336C315.457 72.4947 315.774 72.728 316.045 73.036V68.892L317.067 68.682V79H316.045V78.09C315.783 78.4167 315.466 78.6687 315.093 78.846C314.719 79.014 314.309 79.098 313.861 79.098ZM314.113 78.202C314.514 78.202 314.883 78.1227 315.219 77.964C315.555 77.8053 315.83 77.5813 316.045 77.292V73.904C315.821 73.6147 315.536 73.3907 315.191 73.232C314.855 73.064 314.495 72.98 314.113 72.98C313.655 72.98 313.245 73.092 312.881 73.316C312.526 73.54 312.241 73.848 312.027 74.24C311.821 74.632 311.719 75.08 311.719 75.584C311.719 76.0787 311.821 76.5267 312.027 76.928C312.241 77.32 312.526 77.6327 312.881 77.866C313.245 78.09 313.655 78.202 314.113 78.202ZM322.009 79.098C321.421 79.098 320.889 78.944 320.413 78.636C319.937 78.3187 319.559 77.8987 319.279 77.376C318.999 76.844 318.859 76.2513 318.859 75.598C318.859 74.9353 318.999 74.3427 319.279 73.82C319.569 73.288 319.956 72.868 320.441 72.56C320.927 72.2427 321.468 72.084 322.065 72.084C322.485 72.084 322.877 72.168 323.241 72.336C323.605 72.4947 323.923 72.728 324.193 73.036V68.892L325.215 68.682V79H324.193V78.09C323.932 78.4167 323.615 78.6687 323.241 78.846C322.868 79.014 322.457 79.098 322.009 79.098ZM322.261 78.202C322.663 78.202 323.031 78.1227 323.367 77.964C323.703 77.8053 323.979 77.5813 324.193 77.292V73.904C323.969 73.6147 323.685 73.3907 323.339 73.232C323.003 73.064 322.644 72.98 322.261 72.98C321.804 72.98 321.393 73.092 321.029 73.316C320.675 73.54 320.39 73.848 320.175 74.24C319.97 74.632 319.867 75.08 319.867 75.584C319.867 76.0787 319.97 76.5267 320.175 76.928C320.39 77.32 320.675 77.6327 321.029 77.866C321.393 78.09 321.804 78.202 322.261 78.202ZM330.583 79V72.168H331.605V73.274C331.867 72.8633 332.179 72.56 332.543 72.364C332.907 72.1587 333.318 72.056 333.775 72.056C334.27 72.056 334.699 72.1633 335.063 72.378C335.437 72.5833 335.726 72.8773 335.931 73.26C336.146 73.6333 336.253 74.072 336.253 74.576V79H335.231V74.87C335.231 74.2633 335.063 73.7873 334.727 73.442C334.401 73.0873 333.957 72.91 333.397 72.91C333.024 72.91 332.683 72.9987 332.375 73.176C332.067 73.3533 331.811 73.6147 331.605 73.96V79H330.583ZM341.388 79.14C340.753 79.14 340.179 78.986 339.666 78.678C339.152 78.3607 338.746 77.936 338.448 77.404C338.149 76.8627 338 76.256 338 75.584C338 74.912 338.14 74.31 338.42 73.778C338.709 73.246 339.096 72.826 339.582 72.518C340.067 72.21 340.608 72.056 341.206 72.056C341.812 72.056 342.349 72.21 342.816 72.518C343.292 72.8167 343.665 73.2273 343.936 73.75C344.216 74.2633 344.356 74.8467 344.356 75.5V75.808H338.994C339.031 76.2747 339.157 76.6947 339.372 77.068C339.596 77.432 339.885 77.7213 340.24 77.936C340.604 78.1413 341 78.244 341.43 78.244C341.784 78.244 342.125 78.1833 342.452 78.062C342.788 77.9313 343.072 77.7587 343.306 77.544L343.95 78.23C343.558 78.538 343.152 78.7667 342.732 78.916C342.312 79.0653 341.864 79.14 341.388 79.14ZM339.022 75.08H343.348C343.301 74.6693 343.175 74.3053 342.97 73.988C342.774 73.6613 342.522 73.4047 342.214 73.218C341.915 73.0313 341.579 72.938 341.206 72.938C340.832 72.938 340.492 73.0313 340.184 73.218C339.876 73.3953 339.619 73.6473 339.414 73.974C339.218 74.2913 339.087 74.66 339.022 75.08ZM347.182 79L345.306 72.168H346.3L347.728 77.628L349.366 72.168H350.276L351.914 77.628L353.328 72.168H354.294L352.432 79H351.438L349.814 73.484L348.19 79H347.182ZM359.007 81.926V72.168H360.015V73.148C360.276 72.8027 360.594 72.5413 360.967 72.364C361.35 72.1773 361.77 72.084 362.227 72.084C362.824 72.084 363.356 72.2427 363.823 72.56C364.299 72.868 364.677 73.288 364.957 73.82C365.237 74.3427 365.377 74.9307 365.377 75.584C365.377 76.2373 365.232 76.83 364.943 77.362C364.663 77.894 364.28 78.3187 363.795 78.636C363.319 78.944 362.778 79.098 362.171 79.098C361.742 79.098 361.345 79.0187 360.981 78.86C360.617 78.692 360.3 78.454 360.029 78.146V81.926H359.007ZM361.975 78.216C362.432 78.216 362.838 78.104 363.193 77.88C363.557 77.6467 363.842 77.334 364.047 76.942C364.262 76.5407 364.369 76.0927 364.369 75.598C364.369 75.094 364.262 74.646 364.047 74.254C363.842 73.862 363.557 73.554 363.193 73.33C362.838 73.0967 362.432 72.98 361.975 72.98C361.574 72.98 361.2 73.064 360.855 73.232C360.519 73.3907 360.244 73.6193 360.029 73.918V77.264C360.253 77.5627 360.533 77.796 360.869 77.964C361.214 78.132 361.583 78.216 361.975 78.216ZM367.169 79V72.168H368.191V73.568C368.368 73.092 368.62 72.7233 368.947 72.462C369.283 72.1913 369.666 72.056 370.095 72.056C370.216 72.056 370.328 72.0653 370.431 72.084C370.534 72.0933 370.636 72.1167 370.739 72.154V73.078C370.627 73.0407 370.506 73.0127 370.375 72.994C370.254 72.966 370.137 72.952 370.025 72.952C369.605 72.952 369.236 73.0733 368.919 73.316C368.611 73.5587 368.368 73.8993 368.191 74.338V79H367.169ZM374.691 79.112C374.057 79.112 373.487 78.958 372.983 78.65C372.479 78.342 372.083 77.922 371.793 77.39C371.504 76.858 371.359 76.256 371.359 75.584C371.359 74.912 371.504 74.31 371.793 73.778C372.083 73.246 372.479 72.826 372.983 72.518C373.487 72.21 374.057 72.056 374.691 72.056C375.317 72.056 375.877 72.21 376.371 72.518C376.875 72.826 377.272 73.246 377.561 73.778C377.851 74.31 377.995 74.912 377.995 75.584C377.995 76.256 377.851 76.858 377.561 77.39C377.272 77.922 376.875 78.342 376.371 78.65C375.877 78.958 375.317 79.112 374.691 79.112ZM374.677 78.216C375.125 78.216 375.522 78.104 375.867 77.88C376.213 77.6467 376.483 77.3293 376.679 76.928C376.885 76.5267 376.987 76.0787 376.987 75.584C376.987 75.08 376.885 74.632 376.679 74.24C376.483 73.8387 376.213 73.526 375.867 73.302C375.522 73.0687 375.125 72.952 374.677 72.952C374.229 72.952 373.833 73.0687 373.487 73.302C373.142 73.526 372.867 73.8387 372.661 74.24C372.465 74.632 372.367 75.08 372.367 75.584C372.367 76.0787 372.465 76.5267 372.661 76.928C372.867 77.3293 373.142 77.6467 373.487 77.88C373.833 78.104 374.229 78.216 374.677 78.216ZM380.306 70.474C380.101 70.474 379.924 70.404 379.774 70.264C379.634 70.1147 379.564 69.942 379.564 69.746C379.564 69.55 379.634 69.382 379.774 69.242C379.924 69.0927 380.101 69.018 380.306 69.018C380.512 69.018 380.684 69.0927 380.824 69.242C380.974 69.382 381.048 69.55 381.048 69.746C381.048 69.942 380.974 70.1147 380.824 70.264C380.684 70.404 380.512 70.474 380.306 70.474ZM379.088 82.066C378.976 82.066 378.864 82.052 378.752 82.024C378.65 82.0053 378.552 81.9913 378.458 81.982V81.1C378.542 81.1187 378.626 81.1327 378.71 81.142C378.785 81.1513 378.869 81.156 378.962 81.156C379.261 81.156 379.471 81.086 379.592 80.946C379.723 80.806 379.788 80.5773 379.788 80.26V72.168H380.81V80.316C380.81 80.8667 380.661 81.296 380.362 81.604C380.073 81.912 379.648 82.066 379.088 82.066ZM385.985 79.14C385.351 79.14 384.777 78.986 384.263 78.678C383.75 78.3607 383.344 77.936 383.045 77.404C382.747 76.8627 382.597 76.256 382.597 75.584C382.597 74.912 382.737 74.31 383.017 73.778C383.307 73.246 383.694 72.826 384.179 72.518C384.665 72.21 385.206 72.056 385.803 72.056C386.41 72.056 386.947 72.21 387.413 72.518C387.889 72.8167 388.263 73.2273 388.533 73.75C388.813 74.2633 388.953 74.8467 388.953 75.5V75.808H383.591C383.629 76.2747 383.755 76.6947 383.969 77.068C384.193 77.432 384.483 77.7213 384.837 77.936C385.201 78.1413 385.598 78.244 386.027 78.244C386.382 78.244 386.723 78.1833 387.049 78.062C387.385 77.9313 387.67 77.7587 387.903 77.544L388.547 78.23C388.155 78.538 387.749 78.7667 387.329 78.916C386.909 79.0653 386.461 79.14 385.985 79.14ZM383.619 75.08H387.945C387.899 74.6693 387.773 74.3053 387.567 73.988C387.371 73.6613 387.119 73.4047 386.811 73.218C386.513 73.0313 386.177 72.938 385.803 72.938C385.43 72.938 385.089 73.0313 384.781 73.218C384.473 73.3953 384.217 73.6473 384.011 73.974C383.815 74.2913 383.685 74.66 383.619 75.08ZM393.764 79.112C393.13 79.112 392.556 78.958 392.042 78.65C391.538 78.3327 391.137 77.908 390.838 77.376C390.54 76.8347 390.39 76.2373 390.39 75.584C390.39 74.9213 390.54 74.324 390.838 73.792C391.137 73.26 391.538 72.84 392.042 72.532C392.556 72.2147 393.13 72.056 393.764 72.056C394.268 72.056 394.749 72.1493 395.206 72.336C395.664 72.5227 396.06 72.784 396.396 73.12L395.738 73.834C395.496 73.5633 395.202 73.3533 394.856 73.204C394.511 73.0547 394.161 72.98 393.806 72.98C393.358 72.98 392.952 73.0967 392.588 73.33C392.234 73.5633 391.949 73.876 391.734 74.268C391.52 74.66 391.412 75.0987 391.412 75.584C391.412 76.0693 391.52 76.508 391.734 76.9C391.949 77.292 392.234 77.6047 392.588 77.838C392.952 78.0713 393.358 78.188 393.806 78.188C394.161 78.188 394.511 78.1133 394.856 77.964C395.202 77.8053 395.496 77.5953 395.738 77.334L396.396 78.048C396.06 78.384 395.664 78.6453 395.206 78.832C394.749 79.0187 394.268 79.112 393.764 79.112ZM400.562 79.14C399.974 79.14 399.526 79 399.218 78.72C398.92 78.4307 398.77 78.0153 398.77 77.474V73.008H397.356V72.168H398.77V70.292L399.792 70.054V72.168H401.752V73.008H399.792V77.208C399.792 77.572 399.867 77.8333 400.016 77.992C400.175 78.1507 400.432 78.23 400.786 78.23C400.964 78.23 401.122 78.216 401.262 78.188C401.402 78.16 401.566 78.1133 401.752 78.048V78.958C401.566 79.0233 401.37 79.07 401.164 79.098C400.959 79.126 400.758 79.14 400.562 79.14Z" fill="white"/>
<path d="M79 133C79 119.745 89.7452 109 103 109H922C935.255 109 946 119.745 946 133V911C946 924.255 935.255 935 922 935H103C89.7452 935 79 924.255 79 911V133Z" fill="white"/>
<rect width="867" height="64" transform="translate(79 109)" fill="white"/>
<path d="M152.008 145V136.6H155.764C156.332 136.6 156.824 136.712 157.24 136.936C157.664 137.152 157.992 137.456 158.224 137.848C158.456 138.24 158.572 138.696 158.572 139.216C158.572 139.712 158.456 140.156 158.224 140.548C157.992 140.94 157.664 141.248 157.24 141.472C156.824 141.688 156.332 141.796 155.764 141.796H153.448V145H152.008ZM153.448 140.62H155.536C156.048 140.62 156.44 140.492 156.712 140.236C156.984 139.972 157.12 139.628 157.12 139.204C157.12 138.788 156.984 138.452 156.712 138.196C156.44 137.94 156.052 137.812 155.548 137.812H153.448V140.62ZM159.949 145V138.988H161.305V140.284C161.481 139.828 161.709 139.48 161.989 139.24C162.269 139 162.593 138.88 162.961 138.88C163.073 138.888 163.173 138.9 163.261 138.916C163.349 138.924 163.445 138.952 163.549 139V140.188C163.445 140.14 163.325 140.104 163.189 140.08C163.061 140.056 162.933 140.044 162.805 140.044C162.477 140.044 162.181 140.132 161.917 140.308C161.661 140.484 161.457 140.728 161.305 141.04V145H159.949ZM167.127 145.108C166.559 145.108 166.043 144.972 165.579 144.7C165.123 144.428 164.763 144.06 164.499 143.596C164.235 143.124 164.103 142.592 164.103 142C164.103 141.408 164.235 140.88 164.499 140.416C164.763 139.944 165.123 139.572 165.579 139.3C166.035 139.028 166.551 138.892 167.127 138.892C167.703 138.892 168.215 139.028 168.663 139.3C169.119 139.572 169.479 139.944 169.743 140.416C170.007 140.88 170.139 141.408 170.139 142C170.139 142.592 170.007 143.124 169.743 143.596C169.479 144.06 169.119 144.428 168.663 144.7C168.215 144.972 167.703 145.108 167.127 145.108ZM167.127 143.956C167.455 143.956 167.743 143.872 167.991 143.704C168.247 143.536 168.447 143.304 168.591 143.008C168.735 142.704 168.807 142.368 168.807 142C168.807 141.624 168.735 141.292 168.591 141.004C168.447 140.708 168.247 140.476 167.991 140.308C167.743 140.132 167.455 140.044 167.127 140.044C166.799 140.044 166.507 140.132 166.251 140.308C165.995 140.476 165.795 140.708 165.651 141.004C165.507 141.292 165.435 141.624 165.435 142C165.435 142.376 165.507 142.712 165.651 143.008C165.795 143.304 165.995 143.536 166.251 143.704C166.507 143.872 166.799 143.956 167.127 143.956ZM172.223 137.764C171.991 137.764 171.791 137.684 171.623 137.524C171.455 137.356 171.371 137.16 171.371 136.936C171.371 136.704 171.455 136.508 171.623 136.348C171.791 136.18 171.991 136.096 172.223 136.096C172.455 136.096 172.651 136.18 172.811 136.348C172.979 136.508 173.063 136.7 173.063 136.924C173.063 137.156 172.979 137.356 172.811 137.524C172.651 137.684 172.455 137.764 172.223 137.764ZM171.119 147.628C170.983 147.628 170.847 147.616 170.711 147.592C170.583 147.576 170.475 147.556 170.387 147.532V146.452C170.467 146.468 170.543 146.48 170.615 146.488C170.687 146.496 170.771 146.5 170.867 146.5C171.099 146.5 171.267 146.448 171.371 146.344C171.483 146.24 171.539 146.072 171.539 145.84V138.988H172.895V145.9C172.895 146.444 172.739 146.868 172.427 147.172C172.123 147.476 171.687 147.628 171.119 147.628ZM177.359 145.12C176.783 145.12 176.263 144.984 175.799 144.712C175.335 144.432 174.967 144.06 174.695 143.596C174.423 143.124 174.287 142.592 174.287 142C174.287 141.408 174.415 140.88 174.671 140.416C174.927 139.952 175.275 139.584 175.715 139.312C176.163 139.032 176.659 138.892 177.203 138.892C177.763 138.892 178.255 139.028 178.679 139.3C179.111 139.572 179.447 139.94 179.687 140.404C179.935 140.868 180.059 141.4 180.059 142V142.324H175.619C175.667 142.652 175.771 142.944 175.931 143.2C176.099 143.448 176.311 143.644 176.567 143.788C176.831 143.932 177.115 144.004 177.419 144.004C177.699 144.004 177.963 143.956 178.211 143.86C178.467 143.756 178.679 143.616 178.847 143.44L179.735 144.244C179.367 144.548 178.991 144.772 178.607 144.916C178.231 145.052 177.815 145.12 177.359 145.12ZM175.631 141.484H178.775C178.727 141.196 178.627 140.94 178.475 140.716C178.331 140.492 178.147 140.316 177.923 140.188C177.707 140.06 177.467 139.996 177.203 139.996C176.939 139.996 176.695 140.06 176.471 140.188C176.255 140.308 176.075 140.48 175.931 140.704C175.787 140.928 175.687 141.188 175.631 141.484ZM184.225 145.108C183.657 145.108 183.141 144.972 182.677 144.7C182.221 144.42 181.857 144.044 181.585 143.572C181.321 143.1 181.189 142.576 181.189 142C181.189 141.416 181.321 140.892 181.585 140.428C181.857 139.956 182.221 139.584 182.677 139.312C183.141 139.032 183.657 138.892 184.225 138.892C184.689 138.892 185.129 138.98 185.545 139.156C185.969 139.332 186.329 139.584 186.625 139.912L185.785 140.788C185.577 140.556 185.345 140.38 185.089 140.26C184.833 140.14 184.561 140.08 184.273 140.08C183.945 140.08 183.649 140.168 183.385 140.344C183.129 140.512 182.925 140.74 182.773 141.028C182.621 141.316 182.545 141.64 182.545 142C182.545 142.36 182.621 142.688 182.773 142.984C182.925 143.272 183.129 143.5 183.385 143.668C183.649 143.836 183.945 143.92 184.273 143.92C184.561 143.92 184.833 143.86 185.089 143.74C185.345 143.62 185.577 143.448 185.785 143.224L186.625 144.088C186.329 144.416 185.969 144.668 185.545 144.844C185.129 145.02 184.689 145.108 184.225 145.108ZM190.455 145.12C189.847 145.12 189.387 144.98 189.075 144.7C188.763 144.412 188.607 143.992 188.607 143.44V140.068H187.407V138.988H188.607V137.332L189.963 137.044V138.988H191.631V140.068H189.963V143.14C189.963 143.436 190.027 143.648 190.155 143.776C190.283 143.896 190.499 143.956 190.803 143.956C190.939 143.956 191.063 143.948 191.175 143.932C191.295 143.908 191.443 143.868 191.619 143.812V144.952C191.451 145.008 191.259 145.048 191.043 145.072C190.835 145.104 190.639 145.12 190.455 145.12Z" fill="#151515"/>
<path d="M352.758 145V136.6H356.502C357.022 136.6 357.482 136.692 357.882 136.876C358.282 137.06 358.59 137.32 358.806 137.656C359.03 137.984 359.142 138.368 359.142 138.808C359.142 139.24 359.018 139.62 358.77 139.948C358.522 140.268 358.19 140.508 357.774 140.668C358.286 140.82 358.69 141.072 358.986 141.424C359.282 141.768 359.43 142.18 359.43 142.66C359.43 143.124 359.314 143.532 359.082 143.884C358.85 144.236 358.526 144.512 358.11 144.712C357.694 144.904 357.21 145 356.658 145H352.758ZM354.198 140.14H356.346C356.762 140.14 357.09 140.032 357.33 139.816C357.578 139.6 357.702 139.312 357.702 138.952C357.702 138.592 357.578 138.308 357.33 138.1C357.09 137.884 356.762 137.776 356.346 137.776H354.198V140.14ZM354.198 143.824H356.478C356.934 143.824 357.298 143.708 357.57 143.476C357.842 143.236 357.978 142.92 357.978 142.528C357.978 142.144 357.842 141.836 357.57 141.604C357.306 141.364 356.942 141.244 356.478 141.244H354.198V143.824ZM360.945 145V138.988H362.301V140.284C362.477 139.828 362.705 139.48 362.985 139.24C363.265 139 363.589 138.88 363.957 138.88C364.069 138.888 364.169 138.9 364.257 138.916C364.345 138.924 364.441 138.952 364.545 139V140.188C364.441 140.14 364.321 140.104 364.185 140.08C364.057 140.056 363.929 140.044 363.801 140.044C363.473 140.044 363.177 140.132 362.913 140.308C362.657 140.484 362.453 140.728 362.301 141.04V145H360.945ZM367.293 145.108C366.877 145.108 366.505 145.032 366.177 144.88C365.857 144.72 365.605 144.504 365.421 144.232C365.245 143.952 365.157 143.632 365.157 143.272C365.157 142.912 365.249 142.6 365.433 142.336C365.625 142.072 365.893 141.868 366.237 141.724C366.581 141.58 366.989 141.508 367.461 141.508C367.741 141.508 368.017 141.54 368.289 141.604C368.561 141.66 368.825 141.756 369.081 141.892V141.22C369.081 140.82 368.965 140.52 368.733 140.32C368.509 140.12 368.165 140.02 367.701 140.02C367.453 140.02 367.185 140.06 366.897 140.14C366.617 140.212 366.301 140.328 365.949 140.488L365.469 139.504C366.349 139.096 367.181 138.892 367.965 138.892C368.749 138.892 369.353 139.084 369.777 139.468C370.209 139.844 370.425 140.38 370.425 141.076V145H369.081V144.376C368.825 144.624 368.549 144.808 368.253 144.928C367.957 145.048 367.637 145.108 367.293 145.108ZM366.429 143.248C366.429 143.528 366.541 143.748 366.765 143.908C366.989 144.068 367.289 144.148 367.665 144.148C367.937 144.148 368.189 144.108 368.421 144.028C368.661 143.94 368.881 143.812 369.081 143.644V142.672C368.873 142.576 368.657 142.504 368.433 142.456C368.209 142.408 367.965 142.384 367.701 142.384C367.309 142.384 366.997 142.46 366.765 142.612C366.541 142.764 366.429 142.976 366.429 143.248ZM372.067 145V138.988H373.423V139.972C373.655 139.612 373.931 139.344 374.251 139.168C374.571 138.984 374.927 138.892 375.319 138.892C375.735 138.892 376.099 138.984 376.411 139.168C376.723 139.344 376.967 139.592 377.143 139.912C377.327 140.232 377.419 140.608 377.419 141.04V145H376.051V141.424C376.051 140.984 375.931 140.636 375.691 140.38C375.451 140.116 375.131 139.984 374.731 139.984C374.459 139.984 374.211 140.048 373.987 140.176C373.771 140.296 373.583 140.476 373.423 140.716V145H372.067ZM381.811 145.108C381.243 145.108 380.727 144.972 380.263 144.7C379.807 144.42 379.443 144.044 379.171 143.572C378.907 143.1 378.775 142.576 378.775 142C378.775 141.416 378.907 140.892 379.171 140.428C379.443 139.956 379.807 139.584 380.263 139.312C380.727 139.032 381.243 138.892 381.811 138.892C382.275 138.892 382.715 138.98 383.131 139.156C383.555 139.332 383.915 139.584 384.211 139.912L383.371 140.788C383.163 140.556 382.931 140.38 382.675 140.26C382.419 140.14 382.147 140.08 381.859 140.08C381.531 140.08 381.235 140.168 380.971 140.344C380.715 140.512 380.511 140.74 380.359 141.028C380.207 141.316 380.131 141.64 380.131 142C380.131 142.36 380.207 142.688 380.359 142.984C380.511 143.272 380.715 143.5 380.971 143.668C381.235 143.836 381.531 143.92 381.859 143.92C382.147 143.92 382.419 143.86 382.675 143.74C382.931 143.62 383.163 143.448 383.371 143.224L384.211 144.088C383.915 144.416 383.555 144.668 383.131 144.844C382.715 145.02 382.275 145.108 381.811 145.108ZM385.332 145V136.396L386.688 136.156V139.972C386.92 139.612 387.196 139.344 387.516 139.168C387.836 138.984 388.192 138.892 388.584 138.892C389 138.892 389.364 138.984 389.676 139.168C389.988 139.344 390.232 139.592 390.408 139.912C390.592 140.232 390.684 140.608 390.684 141.04V145H389.316V141.424C389.316 140.984 389.196 140.636 388.956 140.38C388.716 140.116 388.396 139.984 387.996 139.984C387.724 139.984 387.476 140.048 387.252 140.176C387.036 140.296 386.848 140.476 386.688 140.716V145H385.332Z" fill="#151515"/>
<mask id="path-16-inside-3_3445_23325" fill="white">
<path d="M79 173H946V237H79V173Z"/>
</mask>
<path d="M79 173H946V237H79V173Z" fill="white"/>
<path d="M946 237V236H79V237V238H946V237Z" fill="#C7C7C7" mask="url(#path-16-inside-3_3445_23325)"/>
<path d="M103 201C103 198.791 104.791 197 107 197H115C117.209 197 119 198.791 119 201V209C119 211.209 117.209 213 115 213H107C104.791 213 103 211.209 103 209V201Z" fill="#0066CC"/>
<path d="M115.815 199.955C116.089 199.682 116.531 199.682 116.805 199.955L117.795 200.945C118.068 201.219 118.068 201.661 117.795 201.935L109.745 209.985C109.472 210.259 109.028 210.259 108.755 209.985L104.205 205.435C103.932 205.161 103.932 204.719 104.205 204.445L105.195 203.455C105.469 203.182 105.911 203.182 106.185 203.455L109.25 206.521L115.815 199.955Z" fill="white"/>
<path d="M152.246 209.5V199.7H153.744L157.02 206.672L160.296 199.7H161.794V209.5H160.772V200.974L157.02 208.8L153.254 200.946V209.5H152.246ZM164.389 212.566C164.174 212.566 163.955 212.533 163.731 212.468V211.558C163.824 211.577 163.922 211.591 164.025 211.6C164.128 211.609 164.216 211.614 164.291 211.614C164.552 211.614 164.767 211.544 164.935 211.404C165.112 211.264 165.262 211.045 165.383 210.746L165.887 209.5L163.255 202.668H164.389L166.461 208.282L168.659 202.668H169.793L166.349 211.054C166.2 211.418 166.036 211.712 165.859 211.936C165.682 212.16 165.476 212.319 165.243 212.412C165.01 212.515 164.725 212.566 164.389 212.566ZM176.449 209.626C175.964 209.626 175.534 209.537 175.161 209.36C174.788 209.183 174.494 208.94 174.279 208.632C174.074 208.315 173.971 207.951 173.971 207.54C173.971 207.129 174.078 206.775 174.293 206.476C174.508 206.168 174.806 205.93 175.189 205.762C175.572 205.594 176.02 205.51 176.533 205.51C176.925 205.51 177.294 205.552 177.639 205.636C177.994 205.72 178.32 205.855 178.619 206.042V205.104C178.619 204.544 178.47 204.124 178.171 203.844C177.872 203.555 177.434 203.41 176.855 203.41C176.538 203.41 176.211 203.457 175.875 203.55C175.548 203.643 175.184 203.793 174.783 203.998L174.405 203.214C175.32 202.775 176.178 202.556 176.981 202.556C177.83 202.556 178.484 202.766 178.941 203.186C179.398 203.597 179.627 204.189 179.627 204.964V209.5H178.619V208.702C178.32 209.01 177.989 209.243 177.625 209.402C177.261 209.551 176.869 209.626 176.449 209.626ZM174.951 207.512C174.951 207.913 175.105 208.235 175.413 208.478C175.73 208.721 176.146 208.842 176.659 208.842C177.042 208.842 177.392 208.777 177.709 208.646C178.036 208.515 178.339 208.319 178.619 208.058V206.742C178.33 206.574 178.031 206.453 177.723 206.378C177.415 206.294 177.07 206.252 176.687 206.252C176.164 206.252 175.744 206.369 175.427 206.602C175.11 206.826 174.951 207.129 174.951 207.512ZM181.704 212.426V202.668H182.712V203.648C182.974 203.303 183.291 203.041 183.664 202.864C184.047 202.677 184.467 202.584 184.924 202.584C185.522 202.584 186.054 202.743 186.52 203.06C186.996 203.368 187.374 203.788 187.654 204.32C187.934 204.843 188.074 205.431 188.074 206.084C188.074 206.737 187.93 207.33 187.64 207.862C187.36 208.394 186.978 208.819 186.492 209.136C186.016 209.444 185.475 209.598 184.868 209.598C184.439 209.598 184.042 209.519 183.678 209.36C183.314 209.192 182.997 208.954 182.726 208.646V212.426H181.704ZM184.672 208.716C185.13 208.716 185.536 208.604 185.89 208.38C186.254 208.147 186.539 207.834 186.744 207.442C186.959 207.041 187.066 206.593 187.066 206.098C187.066 205.594 186.959 205.146 186.744 204.754C186.539 204.362 186.254 204.054 185.89 203.83C185.536 203.597 185.13 203.48 184.672 203.48C184.271 203.48 183.898 203.564 183.552 203.732C183.216 203.891 182.941 204.119 182.726 204.418V207.764C182.95 208.063 183.23 208.296 183.566 208.464C183.912 208.632 184.28 208.716 184.672 208.716ZM189.866 212.426V202.668H190.874V203.648C191.136 203.303 191.453 203.041 191.826 202.864C192.209 202.677 192.629 202.584 193.086 202.584C193.684 202.584 194.216 202.743 194.682 203.06C195.158 203.368 195.536 203.788 195.816 204.32C196.096 204.843 196.236 205.431 196.236 206.084C196.236 206.737 196.092 207.33 195.802 207.862C195.522 208.394 195.14 208.819 194.654 209.136C194.178 209.444 193.637 209.598 193.03 209.598C192.601 209.598 192.204 209.519 191.84 209.36C191.476 209.192 191.159 208.954 190.888 208.646V212.426H189.866ZM192.834 208.716C193.292 208.716 193.698 208.604 194.052 208.38C194.416 208.147 194.701 207.834 194.906 207.442C195.121 207.041 195.228 206.593 195.228 206.098C195.228 205.594 195.121 205.146 194.906 204.754C194.701 204.362 194.416 204.054 194.052 203.83C193.698 203.597 193.292 203.48 192.834 203.48C192.433 203.48 192.06 203.564 191.714 203.732C191.378 203.891 191.103 204.119 190.888 204.418V207.764C191.112 208.063 191.392 208.296 191.728 208.464C192.074 208.632 192.442 208.716 192.834 208.716ZM198.029 209.5V199.392L199.051 199.182V209.5H198.029ZM201.132 209.5V202.668H202.154V209.5H201.132ZM201.65 200.974C201.444 200.974 201.267 200.904 201.118 200.764C200.978 200.615 200.908 200.442 200.908 200.246C200.908 200.05 200.978 199.882 201.118 199.742C201.267 199.593 201.444 199.518 201.65 199.518C201.855 199.518 202.028 199.593 202.168 199.742C202.317 199.882 202.392 200.05 202.392 200.246C202.392 200.442 202.317 200.615 202.168 200.764C202.028 200.904 201.855 200.974 201.65 200.974ZM207.315 209.612C206.681 209.612 206.107 209.458 205.593 209.15C205.089 208.833 204.688 208.408 204.389 207.876C204.091 207.335 203.941 206.737 203.941 206.084C203.941 205.421 204.091 204.824 204.389 204.292C204.688 203.76 205.089 203.34 205.593 203.032C206.107 202.715 206.681 202.556 207.315 202.556C207.819 202.556 208.3 202.649 208.757 202.836C209.215 203.023 209.611 203.284 209.947 203.62L209.289 204.334C209.047 204.063 208.753 203.853 208.407 203.704C208.062 203.555 207.712 203.48 207.357 203.48C206.909 203.48 206.503 203.597 206.139 203.83C205.785 204.063 205.5 204.376 205.285 204.768C205.071 205.16 204.963 205.599 204.963 206.084C204.963 206.569 205.071 207.008 205.285 207.4C205.5 207.792 205.785 208.105 206.139 208.338C206.503 208.571 206.909 208.688 207.357 208.688C207.712 208.688 208.062 208.613 208.407 208.464C208.753 208.305 209.047 208.095 209.289 207.834L209.947 208.548C209.611 208.884 209.215 209.145 208.757 209.332C208.3 209.519 207.819 209.612 207.315 209.612ZM213.486 209.626C213.001 209.626 212.572 209.537 212.198 209.36C211.825 209.183 211.531 208.94 211.316 208.632C211.111 208.315 211.008 207.951 211.008 207.54C211.008 207.129 211.116 206.775 211.33 206.476C211.545 206.168 211.844 205.93 212.226 205.762C212.609 205.594 213.057 205.51 213.57 205.51C213.962 205.51 214.331 205.552 214.676 205.636C215.031 205.72 215.358 205.855 215.656 206.042V205.104C215.656 204.544 215.507 204.124 215.208 203.844C214.91 203.555 214.471 203.41 213.892 203.41C213.575 203.41 213.248 203.457 212.912 203.55C212.586 203.643 212.222 203.793 211.82 203.998L211.442 203.214C212.357 202.775 213.216 202.556 214.018 202.556C214.868 202.556 215.521 202.766 215.978 203.186C216.436 203.597 216.664 204.189 216.664 204.964V209.5H215.656V208.702C215.358 209.01 215.026 209.243 214.662 209.402C214.298 209.551 213.906 209.626 213.486 209.626ZM211.988 207.512C211.988 207.913 212.142 208.235 212.45 208.478C212.768 208.721 213.183 208.842 213.696 208.842C214.079 208.842 214.429 208.777 214.746 208.646C215.073 208.515 215.376 208.319 215.656 208.058V206.742C215.367 206.574 215.068 206.453 214.76 206.378C214.452 206.294 214.107 206.252 213.724 206.252C213.202 206.252 212.782 206.369 212.464 206.602C212.147 206.826 211.988 207.129 211.988 207.512ZM221.14 209.64C220.552 209.64 220.104 209.5 219.796 209.22C219.498 208.931 219.348 208.515 219.348 207.974V203.508H217.934V202.668H219.348V200.792L220.37 200.554V202.668H222.33V203.508H220.37V207.708C220.37 208.072 220.445 208.333 220.594 208.492C220.753 208.651 221.01 208.73 221.364 208.73C221.542 208.73 221.7 208.716 221.84 208.688C221.98 208.66 222.144 208.613 222.33 208.548V209.458C222.144 209.523 221.948 209.57 221.742 209.598C221.537 209.626 221.336 209.64 221.14 209.64ZM223.813 209.5V202.668H224.835V209.5H223.813ZM224.331 200.974C224.126 200.974 223.949 200.904 223.799 200.764C223.659 200.615 223.589 200.442 223.589 200.246C223.589 200.05 223.659 199.882 223.799 199.742C223.949 199.593 224.126 199.518 224.331 199.518C224.537 199.518 224.709 199.593 224.849 199.742C224.999 199.882 225.073 200.05 225.073 200.246C225.073 200.442 224.999 200.615 224.849 200.764C224.709 200.904 224.537 200.974 224.331 200.974ZM229.955 209.612C229.32 209.612 228.751 209.458 228.247 209.15C227.743 208.842 227.346 208.422 227.057 207.89C226.768 207.358 226.623 206.756 226.623 206.084C226.623 205.412 226.768 204.81 227.057 204.278C227.346 203.746 227.743 203.326 228.247 203.018C228.751 202.71 229.32 202.556 229.955 202.556C230.58 202.556 231.14 202.71 231.635 203.018C232.139 203.326 232.536 203.746 232.825 204.278C233.114 204.81 233.259 205.412 233.259 206.084C233.259 206.756 233.114 207.358 232.825 207.89C232.536 208.422 232.139 208.842 231.635 209.15C231.14 209.458 230.58 209.612 229.955 209.612ZM229.941 208.716C230.389 208.716 230.786 208.604 231.131 208.38C231.476 208.147 231.747 207.829 231.943 207.428C232.148 207.027 232.251 206.579 232.251 206.084C232.251 205.58 232.148 205.132 231.943 204.74C231.747 204.339 231.476 204.026 231.131 203.802C230.786 203.569 230.389 203.452 229.941 203.452C229.493 203.452 229.096 203.569 228.751 203.802C228.406 204.026 228.13 204.339 227.925 204.74C227.729 205.132 227.631 205.58 227.631 206.084C227.631 206.579 227.729 207.027 227.925 207.428C228.13 207.829 228.406 208.147 228.751 208.38C229.096 208.604 229.493 208.716 229.941 208.716ZM235.052 209.5V202.668H236.074V203.774C236.335 203.363 236.648 203.06 237.012 202.864C237.376 202.659 237.787 202.556 238.244 202.556C238.739 202.556 239.168 202.663 239.532 202.878C239.905 203.083 240.195 203.377 240.4 203.76C240.615 204.133 240.722 204.572 240.722 205.076V209.5H239.7V205.37C239.7 204.763 239.532 204.287 239.196 203.942C238.869 203.587 238.426 203.41 237.866 203.41C237.493 203.41 237.152 203.499 236.844 203.676C236.536 203.853 236.279 204.115 236.074 204.46V209.5H235.052Z" fill="#0066CC"/>
<path d="M151 213H241.73V214.4H151V213Z" fill="#0066CC"/>
<path d="M359.688 198.5C360.896 198.5 361.875 199.479 361.875 200.688C361.875 201.666 361.232 202.494 360.344 202.773V206.711C360.997 206.397 361.795 206.32 362.566 206.249C363.548 206.159 364.475 206.072 364.896 205.547C365.082 205.317 365.181 204.977 365.197 204.537C364.289 204.272 363.625 203.433 363.625 202.438C363.625 201.229 364.604 200.25 365.812 200.25C367.021 200.25 368 201.229 368 202.438C368 203.4 367.377 204.217 366.513 204.513C366.499 205.281 366.305 205.893 365.922 206.369C365.151 207.326 363.843 207.45 362.689 207.557C361.987 207.622 361.326 207.682 360.883 207.906C360.689 208.005 360.559 208.13 360.475 208.272C361.295 208.587 361.875 209.383 361.875 210.312C361.875 211.521 360.896 212.5 359.688 212.5C358.479 212.5 357.5 211.521 357.5 210.312C357.5 209.334 358.143 208.505 359.031 208.224V202.773C358.143 202.494 357.5 201.666 357.5 200.688C357.5 199.479 358.479 198.5 359.688 198.5ZM359.688 209.875C359.447 209.875 359.25 210.072 359.25 210.312C359.25 210.553 359.447 210.75 359.688 210.75C359.928 210.75 360.125 210.553 360.125 210.312C360.125 210.072 359.928 209.875 359.688 209.875ZM365.812 202C365.572 202 365.375 202.197 365.375 202.438C365.375 202.678 365.572 202.875 365.812 202.875C366.053 202.875 366.25 202.678 366.25 202.438C366.25 202.197 366.053 202 365.812 202ZM359.688 200.25C359.447 200.25 359.25 200.447 359.25 200.688C359.25 200.928 359.447 201.125 359.688 201.125C359.928 201.125 360.125 200.928 360.125 200.688C360.125 200.447 359.928 200.25 359.688 200.25Z" fill="#1F1F1F"/>
<path d="M378.892 209.5V200.792L377.324 201.492V200.568L379.27 199.7H379.9V209.5H378.892ZM385.663 209.654C384.916 209.654 384.254 209.439 383.675 209.01C383.106 208.581 382.658 207.988 382.331 207.232C382.004 206.467 381.841 205.589 381.841 204.6C381.841 203.601 382.004 202.724 382.331 201.968C382.658 201.212 383.106 200.619 383.675 200.19C384.254 199.761 384.916 199.546 385.663 199.546C386.41 199.546 387.068 199.761 387.637 200.19C388.216 200.619 388.668 201.212 388.995 201.968C389.322 202.724 389.485 203.601 389.485 204.6C389.485 205.589 389.322 206.467 388.995 207.232C388.668 207.988 388.216 208.581 387.637 209.01C387.068 209.439 386.41 209.654 385.663 209.654ZM385.663 208.744C386.232 208.744 386.722 208.576 387.133 208.24C387.553 207.895 387.88 207.414 388.113 206.798C388.346 206.173 388.463 205.44 388.463 204.6C388.463 203.76 388.346 203.032 388.113 202.416C387.88 201.791 387.553 201.31 387.133 200.974C386.722 200.629 386.232 200.456 385.663 200.456C385.103 200.456 384.613 200.629 384.193 200.974C383.773 201.31 383.446 201.791 383.213 202.416C382.98 203.032 382.863 203.76 382.863 204.6C382.863 205.44 382.98 206.173 383.213 206.798C383.446 207.414 383.773 207.895 384.193 208.24C384.613 208.576 385.103 208.744 385.663 208.744Z" fill="#151515"/>
<mask id="path-23-inside-4_3445_23325" fill="white">
<path d="M79 237H946V301H79V237Z"/>
</mask>
<path d="M79 237H946V301H79V237Z" fill="white"/>
<path d="M946 301V300H79V301V302H946V301Z" fill="#C7C7C7" mask="url(#path-23-inside-4_3445_23325)"/>
<path d="M103 265C103 262.791 104.791 261 107 261H115C117.209 261 119 262.791 119 265V273C119 275.209 117.209 277 115 277H107C104.791 277 103 275.209 103 273V265Z" fill="#0066CC"/>
<path d="M116.143 267.5C116.616 267.5 117 267.884 117 268.357V269.214C117 269.687 116.616 270.071 116.143 270.071H105.857C105.384 270.071 105 269.687 105 269.214V268.357C105 267.884 105.384 267.5 105.857 267.5H116.143Z" fill="white"/>
<path d="M152.246 273.5V263.7H153.744L157.02 270.672L160.296 263.7H161.794V273.5H160.772V264.974L157.02 272.8L153.254 264.946V273.5H152.246ZM164.389 276.566C164.174 276.566 163.955 276.533 163.731 276.468V275.558C163.824 275.577 163.922 275.591 164.025 275.6C164.128 275.609 164.216 275.614 164.291 275.614C164.552 275.614 164.767 275.544 164.935 275.404C165.112 275.264 165.262 275.045 165.383 274.746L165.887 273.5L163.255 266.668H164.389L166.461 272.282L168.659 266.668H169.793L166.349 275.054C166.2 275.418 166.036 275.712 165.859 275.936C165.682 276.16 165.476 276.319 165.243 276.412C165.01 276.515 164.725 276.566 164.389 276.566ZM176.449 273.626C175.964 273.626 175.534 273.537 175.161 273.36C174.788 273.183 174.494 272.94 174.279 272.632C174.074 272.315 173.971 271.951 173.971 271.54C173.971 271.129 174.078 270.775 174.293 270.476C174.508 270.168 174.806 269.93 175.189 269.762C175.572 269.594 176.02 269.51 176.533 269.51C176.925 269.51 177.294 269.552 177.639 269.636C177.994 269.72 178.32 269.855 178.619 270.042V269.104C178.619 268.544 178.47 268.124 178.171 267.844C177.872 267.555 177.434 267.41 176.855 267.41C176.538 267.41 176.211 267.457 175.875 267.55C175.548 267.643 175.184 267.793 174.783 267.998L174.405 267.214C175.32 266.775 176.178 266.556 176.981 266.556C177.83 266.556 178.484 266.766 178.941 267.186C179.398 267.597 179.627 268.189 179.627 268.964V273.5H178.619V272.702C178.32 273.01 177.989 273.243 177.625 273.402C177.261 273.551 176.869 273.626 176.449 273.626ZM174.951 271.512C174.951 271.913 175.105 272.235 175.413 272.478C175.73 272.721 176.146 272.842 176.659 272.842C177.042 272.842 177.392 272.777 177.709 272.646C178.036 272.515 178.339 272.319 178.619 272.058V270.742C178.33 270.574 178.031 270.453 177.723 270.378C177.415 270.294 177.07 270.252 176.687 270.252C176.164 270.252 175.744 270.369 175.427 270.602C175.11 270.826 174.951 271.129 174.951 271.512ZM181.704 276.426V266.668H182.712V267.648C182.974 267.303 183.291 267.041 183.664 266.864C184.047 266.677 184.467 266.584 184.924 266.584C185.522 266.584 186.054 266.743 186.52 267.06C186.996 267.368 187.374 267.788 187.654 268.32C187.934 268.843 188.074 269.431 188.074 270.084C188.074 270.737 187.93 271.33 187.64 271.862C187.36 272.394 186.978 272.819 186.492 273.136C186.016 273.444 185.475 273.598 184.868 273.598C184.439 273.598 184.042 273.519 183.678 273.36C183.314 273.192 182.997 272.954 182.726 272.646V276.426H181.704ZM184.672 272.716C185.13 272.716 185.536 272.604 185.89 272.38C186.254 272.147 186.539 271.834 186.744 271.442C186.959 271.041 187.066 270.593 187.066 270.098C187.066 269.594 186.959 269.146 186.744 268.754C186.539 268.362 186.254 268.054 185.89 267.83C185.536 267.597 185.13 267.48 184.672 267.48C184.271 267.48 183.898 267.564 183.552 267.732C183.216 267.891 182.941 268.119 182.726 268.418V271.764C182.95 272.063 183.23 272.296 183.566 272.464C183.912 272.632 184.28 272.716 184.672 272.716ZM189.866 276.426V266.668H190.874V267.648C191.136 267.303 191.453 267.041 191.826 266.864C192.209 266.677 192.629 266.584 193.086 266.584C193.684 266.584 194.216 266.743 194.682 267.06C195.158 267.368 195.536 267.788 195.816 268.32C196.096 268.843 196.236 269.431 196.236 270.084C196.236 270.737 196.092 271.33 195.802 271.862C195.522 272.394 195.14 272.819 194.654 273.136C194.178 273.444 193.637 273.598 193.03 273.598C192.601 273.598 192.204 273.519 191.84 273.36C191.476 273.192 191.159 272.954 190.888 272.646V276.426H189.866ZM192.834 272.716C193.292 272.716 193.698 272.604 194.052 272.38C194.416 272.147 194.701 271.834 194.906 271.442C195.121 271.041 195.228 270.593 195.228 270.098C195.228 269.594 195.121 269.146 194.906 268.754C194.701 268.362 194.416 268.054 194.052 267.83C193.698 267.597 193.292 267.48 192.834 267.48C192.433 267.48 192.06 267.564 191.714 267.732C191.378 267.891 191.103 268.119 190.888 268.418V271.764C191.112 272.063 191.392 272.296 191.728 272.464C192.074 272.632 192.442 272.716 192.834 272.716ZM198.029 273.5V263.392L199.051 263.182V273.5H198.029ZM201.132 273.5V266.668H202.154V273.5H201.132ZM201.65 264.974C201.444 264.974 201.267 264.904 201.118 264.764C200.978 264.615 200.908 264.442 200.908 264.246C200.908 264.05 200.978 263.882 201.118 263.742C201.267 263.593 201.444 263.518 201.65 263.518C201.855 263.518 202.028 263.593 202.168 263.742C202.317 263.882 202.392 264.05 202.392 264.246C202.392 264.442 202.317 264.615 202.168 264.764C202.028 264.904 201.855 264.974 201.65 264.974ZM207.315 273.612C206.681 273.612 206.107 273.458 205.593 273.15C205.089 272.833 204.688 272.408 204.389 271.876C204.091 271.335 203.941 270.737 203.941 270.084C203.941 269.421 204.091 268.824 204.389 268.292C204.688 267.76 205.089 267.34 205.593 267.032C206.107 266.715 206.681 266.556 207.315 266.556C207.819 266.556 208.3 266.649 208.757 266.836C209.215 267.023 209.611 267.284 209.947 267.62L209.289 268.334C209.047 268.063 208.753 267.853 208.407 267.704C208.062 267.555 207.712 267.48 207.357 267.48C206.909 267.48 206.503 267.597 206.139 267.83C205.785 268.063 205.5 268.376 205.285 268.768C205.071 269.16 204.963 269.599 204.963 270.084C204.963 270.569 205.071 271.008 205.285 271.4C205.5 271.792 205.785 272.105 206.139 272.338C206.503 272.571 206.909 272.688 207.357 272.688C207.712 272.688 208.062 272.613 208.407 272.464C208.753 272.305 209.047 272.095 209.289 271.834L209.947 272.548C209.611 272.884 209.215 273.145 208.757 273.332C208.3 273.519 207.819 273.612 207.315 273.612ZM213.486 273.626C213.001 273.626 212.572 273.537 212.198 273.36C211.825 273.183 211.531 272.94 211.316 272.632C211.111 272.315 211.008 271.951 211.008 271.54C211.008 271.129 211.116 270.775 211.33 270.476C211.545 270.168 211.844 269.93 212.226 269.762C212.609 269.594 213.057 269.51 213.57 269.51C213.962 269.51 214.331 269.552 214.676 269.636C215.031 269.72 215.358 269.855 215.656 270.042V269.104C215.656 268.544 215.507 268.124 215.208 267.844C214.91 267.555 214.471 267.41 213.892 267.41C213.575 267.41 213.248 267.457 212.912 267.55C212.586 267.643 212.222 267.793 211.82 267.998L211.442 267.214C212.357 266.775 213.216 266.556 214.018 266.556C214.868 266.556 215.521 266.766 215.978 267.186C216.436 267.597 216.664 268.189 216.664 268.964V273.5H215.656V272.702C215.358 273.01 215.026 273.243 214.662 273.402C214.298 273.551 213.906 273.626 213.486 273.626ZM211.988 271.512C211.988 271.913 212.142 272.235 212.45 272.478C212.768 272.721 213.183 272.842 213.696 272.842C214.079 272.842 214.429 272.777 214.746 272.646C215.073 272.515 215.376 272.319 215.656 272.058V270.742C215.367 270.574 215.068 270.453 214.76 270.378C214.452 270.294 214.107 270.252 213.724 270.252C213.202 270.252 212.782 270.369 212.464 270.602C212.147 270.826 211.988 271.129 211.988 271.512ZM221.14 273.64C220.552 273.64 220.104 273.5 219.796 273.22C219.498 272.931 219.348 272.515 219.348 271.974V267.508H217.934V266.668H219.348V264.792L220.37 264.554V266.668H222.33V267.508H220.37V271.708C220.37 272.072 220.445 272.333 220.594 272.492C220.753 272.651 221.01 272.73 221.364 272.73C221.542 272.73 221.7 272.716 221.84 272.688C221.98 272.66 222.144 272.613 222.33 272.548V273.458C222.144 273.523 221.948 273.57 221.742 273.598C221.537 273.626 221.336 273.64 221.14 273.64ZM223.813 273.5V266.668H224.835V273.5H223.813ZM224.331 264.974C224.126 264.974 223.949 264.904 223.799 264.764C223.659 264.615 223.589 264.442 223.589 264.246C223.589 264.05 223.659 263.882 223.799 263.742C223.949 263.593 224.126 263.518 224.331 263.518C224.537 263.518 224.709 263.593 224.849 263.742C224.999 263.882 225.073 264.05 225.073 264.246C225.073 264.442 224.999 264.615 224.849 264.764C224.709 264.904 224.537 264.974 224.331 264.974ZM229.955 273.612C229.32 273.612 228.751 273.458 228.247 273.15C227.743 272.842 227.346 272.422 227.057 271.89C226.768 271.358 226.623 270.756 226.623 270.084C226.623 269.412 226.768 268.81 227.057 268.278C227.346 267.746 227.743 267.326 228.247 267.018C228.751 266.71 229.32 266.556 229.955 266.556C230.58 266.556 231.14 266.71 231.635 267.018C232.139 267.326 232.536 267.746 232.825 268.278C233.114 268.81 233.259 269.412 233.259 270.084C233.259 270.756 233.114 271.358 232.825 271.89C232.536 272.422 232.139 272.842 231.635 273.15C231.14 273.458 230.58 273.612 229.955 273.612ZM229.941 272.716C230.389 272.716 230.786 272.604 231.131 272.38C231.476 272.147 231.747 271.829 231.943 271.428C232.148 271.027 232.251 270.579 232.251 270.084C232.251 269.58 232.148 269.132 231.943 268.74C231.747 268.339 231.476 268.026 231.131 267.802C230.786 267.569 230.389 267.452 229.941 267.452C229.493 267.452 229.096 267.569 228.751 267.802C228.406 268.026 228.13 268.339 227.925 268.74C227.729 269.132 227.631 269.58 227.631 270.084C227.631 270.579 227.729 271.027 227.925 271.428C228.13 271.829 228.406 272.147 228.751 272.38C229.096 272.604 229.493 272.716 229.941 272.716ZM235.052 273.5V266.668H236.074V267.774C236.335 267.363 236.648 267.06 237.012 266.864C237.376 266.659 237.787 266.556 238.244 266.556C238.739 266.556 239.168 266.663 239.532 266.878C239.905 267.083 240.195 267.377 240.4 267.76C240.615 268.133 240.722 268.572 240.722 269.076V273.5H239.7V269.37C239.7 268.763 239.532 268.287 239.196 267.942C238.869 267.587 238.426 267.41 237.866 267.41C237.493 267.41 237.152 267.499 236.844 267.676C236.536 267.853 236.279 268.115 236.074 268.46V273.5H235.052Z" fill="#0066CC"/>
<path d="M151 277H241.73V278.4H151V277Z" fill="#0066CC"/>
<path d="M353.938 258.5C355.146 258.5 356.125 259.479 356.125 260.688C356.125 261.666 355.482 262.494 354.594 262.773V266.711C355.247 266.397 356.045 266.32 356.816 266.249C357.798 266.159 358.725 266.072 359.146 265.547C359.332 265.317 359.431 264.977 359.447 264.537C358.539 264.272 357.875 263.433 357.875 262.438C357.875 261.229 358.854 260.25 360.062 260.25C361.271 260.25 362.25 261.229 362.25 262.438C362.25 263.4 361.627 264.217 360.763 264.513C360.749 265.281 360.555 265.893 360.172 266.369C359.401 267.326 358.093 267.45 356.939 267.557C356.237 267.622 355.576 267.682 355.133 267.906C354.939 268.005 354.809 268.13 354.725 268.272C355.545 268.587 356.125 269.383 356.125 270.312C356.125 271.521 355.146 272.5 353.938 272.5C352.729 272.5 351.75 271.521 351.75 270.312C351.75 269.334 352.393 268.505 353.281 268.224V262.773C352.393 262.494 351.75 261.666 351.75 260.688C351.75 259.479 352.729 258.5 353.938 258.5ZM353.938 269.875C353.697 269.875 353.5 270.072 353.5 270.312C353.5 270.553 353.697 270.75 353.938 270.75C354.178 270.75 354.375 270.553 354.375 270.312C354.375 270.072 354.178 269.875 353.938 269.875ZM360.062 262C359.822 262 359.625 262.197 359.625 262.438C359.625 262.678 359.822 262.875 360.062 262.875C360.303 262.875 360.5 262.678 360.5 262.438C360.5 262.197 360.303 262 360.062 262ZM353.938 260.25C353.697 260.25 353.5 260.447 353.5 260.688C353.5 260.928 353.697 261.125 353.938 261.125C354.178 261.125 354.375 260.928 354.375 260.688C354.375 260.447 354.178 260.25 353.938 260.25Z" fill="#1F1F1F"/>
<path d="M382.588 273.5V270.882H377.296V270.084L382.504 263.7H383.582V270H384.94V270.882H383.582V273.5H382.588ZM378.472 270H382.588V264.918L378.472 270Z" fill="#151515"/>
<mask id="path-30-inside-5_3445_23325" fill="white">
<path d="M79 301H946V365H79V301Z"/>
</mask>
<path d="M79 301H946V365H79V301Z" fill="white"/>
<path d="M946 365V364H79V365V366H946V365Z" fill="#C7C7C7" mask="url(#path-30-inside-5_3445_23325)"/>
<mask id="path-32-inside-6_3445_23325" fill="white">
<path d="M103 329C103 326.791 104.791 325 107 325H115C117.209 325 119 326.791 119 329V337C119 339.209 117.209 341 115 341H107C104.791 341 103 339.209 103 337V329Z"/>
</mask>
<path d="M103 329C103 326.791 104.791 325 107 325H115C117.209 325 119 326.791 119 329V337C119 339.209 117.209 341 115 341H107C104.791 341 103 339.209 103 337V329Z" fill="white"/>
<path d="M107 325V326H115V325V324H107V325ZM119 329H118V337H119H120V329H119ZM115 341V340H107V341V342H115V341ZM103 337H104V329H103H102V337H103ZM107 341V340C105.343 340 104 338.657 104 337H103H102C102 339.761 104.239 342 107 342V341ZM119 337H118C118 338.657 116.657 340 115 340V341V342C117.761 342 120 339.761 120 337H119ZM115 325V326C116.657 326 118 327.343 118 329H119H120C120 326.239 117.761 324 115 324V325ZM107 325V324C104.239 324 102 326.239 102 329H103H104C104 327.343 105.343 326 107 326V325Z" fill="#C7C7C7" mask="url(#path-32-inside-6_3445_23325)"/>
<path d="M152.246 337.5V327.7H153.744L157.02 334.672L160.296 327.7H161.794V337.5H160.772V328.974L157.02 336.8L153.254 328.946V337.5H152.246ZM164.389 340.566C164.174 340.566 163.955 340.533 163.731 340.468V339.558C163.824 339.577 163.922 339.591 164.025 339.6C164.128 339.609 164.216 339.614 164.291 339.614C164.552 339.614 164.767 339.544 164.935 339.404C165.112 339.264 165.262 339.045 165.383 338.746L165.887 337.5L163.255 330.668H164.389L166.461 336.282L168.659 330.668H169.793L166.349 339.054C166.2 339.418 166.036 339.712 165.859 339.936C165.682 340.16 165.476 340.319 165.243 340.412C165.01 340.515 164.725 340.566 164.389 340.566ZM176.449 337.626C175.964 337.626 175.534 337.537 175.161 337.36C174.788 337.183 174.494 336.94 174.279 336.632C174.074 336.315 173.971 335.951 173.971 335.54C173.971 335.129 174.078 334.775 174.293 334.476C174.508 334.168 174.806 333.93 175.189 333.762C175.572 333.594 176.02 333.51 176.533 333.51C176.925 333.51 177.294 333.552 177.639 333.636C177.994 333.72 178.32 333.855 178.619 334.042V333.104C178.619 332.544 178.47 332.124 178.171 331.844C177.872 331.555 177.434 331.41 176.855 331.41C176.538 331.41 176.211 331.457 175.875 331.55C175.548 331.643 175.184 331.793 174.783 331.998L174.405 331.214C175.32 330.775 176.178 330.556 176.981 330.556C177.83 330.556 178.484 330.766 178.941 331.186C179.398 331.597 179.627 332.189 179.627 332.964V337.5H178.619V336.702C178.32 337.01 177.989 337.243 177.625 337.402C177.261 337.551 176.869 337.626 176.449 337.626ZM174.951 335.512C174.951 335.913 175.105 336.235 175.413 336.478C175.73 336.721 176.146 336.842 176.659 336.842C177.042 336.842 177.392 336.777 177.709 336.646C178.036 336.515 178.339 336.319 178.619 336.058V334.742C178.33 334.574 178.031 334.453 177.723 334.378C177.415 334.294 177.07 334.252 176.687 334.252C176.164 334.252 175.744 334.369 175.427 334.602C175.11 334.826 174.951 335.129 174.951 335.512ZM181.704 340.426V330.668H182.712V331.648C182.974 331.303 183.291 331.041 183.664 330.864C184.047 330.677 184.467 330.584 184.924 330.584C185.522 330.584 186.054 330.743 186.52 331.06C186.996 331.368 187.374 331.788 187.654 332.32C187.934 332.843 188.074 333.431 188.074 334.084C188.074 334.737 187.93 335.33 187.64 335.862C187.36 336.394 186.978 336.819 186.492 337.136C186.016 337.444 185.475 337.598 184.868 337.598C184.439 337.598 184.042 337.519 183.678 337.36C183.314 337.192 182.997 336.954 182.726 336.646V340.426H181.704ZM184.672 336.716C185.13 336.716 185.536 336.604 185.89 336.38C186.254 336.147 186.539 335.834 186.744 335.442C186.959 335.041 187.066 334.593 187.066 334.098C187.066 333.594 186.959 333.146 186.744 332.754C186.539 332.362 186.254 332.054 185.89 331.83C185.536 331.597 185.13 331.48 184.672 331.48C184.271 331.48 183.898 331.564 183.552 331.732C183.216 331.891 182.941 332.119 182.726 332.418V335.764C182.95 336.063 183.23 336.296 183.566 336.464C183.912 336.632 184.28 336.716 184.672 336.716ZM189.866 340.426V330.668H190.874V331.648C191.136 331.303 191.453 331.041 191.826 330.864C192.209 330.677 192.629 330.584 193.086 330.584C193.684 330.584 194.216 330.743 194.682 331.06C195.158 331.368 195.536 331.788 195.816 332.32C196.096 332.843 196.236 333.431 196.236 334.084C196.236 334.737 196.092 335.33 195.802 335.862C195.522 336.394 195.14 336.819 194.654 337.136C194.178 337.444 193.637 337.598 193.03 337.598C192.601 337.598 192.204 337.519 191.84 337.36C191.476 337.192 191.159 336.954 190.888 336.646V340.426H189.866ZM192.834 336.716C193.292 336.716 193.698 336.604 194.052 336.38C194.416 336.147 194.701 335.834 194.906 335.442C195.121 335.041 195.228 334.593 195.228 334.098C195.228 333.594 195.121 333.146 194.906 332.754C194.701 332.362 194.416 332.054 194.052 331.83C193.698 331.597 193.292 331.48 192.834 331.48C192.433 331.48 192.06 331.564 191.714 331.732C191.378 331.891 191.103 332.119 190.888 332.418V335.764C191.112 336.063 191.392 336.296 191.728 336.464C192.074 336.632 192.442 336.716 192.834 336.716ZM198.029 337.5V327.392L199.051 327.182V337.5H198.029ZM201.132 337.5V330.668H202.154V337.5H201.132ZM201.65 328.974C201.444 328.974 201.267 328.904 201.118 328.764C200.978 328.615 200.908 328.442 200.908 328.246C200.908 328.05 200.978 327.882 201.118 327.742C201.267 327.593 201.444 327.518 201.65 327.518C201.855 327.518 202.028 327.593 202.168 327.742C202.317 327.882 202.392 328.05 202.392 328.246C202.392 328.442 202.317 328.615 202.168 328.764C202.028 328.904 201.855 328.974 201.65 328.974ZM207.315 337.612C206.681 337.612 206.107 337.458 205.593 337.15C205.089 336.833 204.688 336.408 204.389 335.876C204.091 335.335 203.941 334.737 203.941 334.084C203.941 333.421 204.091 332.824 204.389 332.292C204.688 331.76 205.089 331.34 205.593 331.032C206.107 330.715 206.681 330.556 207.315 330.556C207.819 330.556 208.3 330.649 208.757 330.836C209.215 331.023 209.611 331.284 209.947 331.62L209.289 332.334C209.047 332.063 208.753 331.853 208.407 331.704C208.062 331.555 207.712 331.48 207.357 331.48C206.909 331.48 206.503 331.597 206.139 331.83C205.785 332.063 205.5 332.376 205.285 332.768C205.071 333.16 204.963 333.599 204.963 334.084C204.963 334.569 205.071 335.008 205.285 335.4C205.5 335.792 205.785 336.105 206.139 336.338C206.503 336.571 206.909 336.688 207.357 336.688C207.712 336.688 208.062 336.613 208.407 336.464C208.753 336.305 209.047 336.095 209.289 335.834L209.947 336.548C209.611 336.884 209.215 337.145 208.757 337.332C208.3 337.519 207.819 337.612 207.315 337.612ZM213.486 337.626C213.001 337.626 212.572 337.537 212.198 337.36C211.825 337.183 211.531 336.94 211.316 336.632C211.111 336.315 211.008 335.951 211.008 335.54C211.008 335.129 211.116 334.775 211.33 334.476C211.545 334.168 211.844 333.93 212.226 333.762C212.609 333.594 213.057 333.51 213.57 333.51C213.962 333.51 214.331 333.552 214.676 333.636C215.031 333.72 215.358 333.855 215.656 334.042V333.104C215.656 332.544 215.507 332.124 215.208 331.844C214.91 331.555 214.471 331.41 213.892 331.41C213.575 331.41 213.248 331.457 212.912 331.55C212.586 331.643 212.222 331.793 211.82 331.998L211.442 331.214C212.357 330.775 213.216 330.556 214.018 330.556C214.868 330.556 215.521 330.766 215.978 331.186C216.436 331.597 216.664 332.189 216.664 332.964V337.5H215.656V336.702C215.358 337.01 215.026 337.243 214.662 337.402C214.298 337.551 213.906 337.626 213.486 337.626ZM211.988 335.512C211.988 335.913 212.142 336.235 212.45 336.478C212.768 336.721 213.183 336.842 213.696 336.842C214.079 336.842 214.429 336.777 214.746 336.646C215.073 336.515 215.376 336.319 215.656 336.058V334.742C215.367 334.574 215.068 334.453 214.76 334.378C214.452 334.294 214.107 334.252 213.724 334.252C213.202 334.252 212.782 334.369 212.464 334.602C212.147 334.826 211.988 335.129 211.988 335.512ZM221.14 337.64C220.552 337.64 220.104 337.5 219.796 337.22C219.498 336.931 219.348 336.515 219.348 335.974V331.508H217.934V330.668H219.348V328.792L220.37 328.554V330.668H222.33V331.508H220.37V335.708C220.37 336.072 220.445 336.333 220.594 336.492C220.753 336.651 221.01 336.73 221.364 336.73C221.542 336.73 221.7 336.716 221.84 336.688C221.98 336.66 222.144 336.613 222.33 336.548V337.458C222.144 337.523 221.948 337.57 221.742 337.598C221.537 337.626 221.336 337.64 221.14 337.64ZM223.813 337.5V330.668H224.835V337.5H223.813ZM224.331 328.974C224.126 328.974 223.949 328.904 223.799 328.764C223.659 328.615 223.589 328.442 223.589 328.246C223.589 328.05 223.659 327.882 223.799 327.742C223.949 327.593 224.126 327.518 224.331 327.518C224.537 327.518 224.709 327.593 224.849 327.742C224.999 327.882 225.073 328.05 225.073 328.246C225.073 328.442 224.999 328.615 224.849 328.764C224.709 328.904 224.537 328.974 224.331 328.974ZM229.955 337.612C229.32 337.612 228.751 337.458 228.247 337.15C227.743 336.842 227.346 336.422 227.057 335.89C226.768 335.358 226.623 334.756 226.623 334.084C226.623 333.412 226.768 332.81 227.057 332.278C227.346 331.746 227.743 331.326 228.247 331.018C228.751 330.71 229.32 330.556 229.955 330.556C230.58 330.556 231.14 330.71 231.635 331.018C232.139 331.326 232.536 331.746 232.825 332.278C233.114 332.81 233.259 333.412 233.259 334.084C233.259 334.756 233.114 335.358 232.825 335.89C232.536 336.422 232.139 336.842 231.635 337.15C231.14 337.458 230.58 337.612 229.955 337.612ZM229.941 336.716C230.389 336.716 230.786 336.604 231.131 336.38C231.476 336.147 231.747 335.829 231.943 335.428C232.148 335.027 232.251 334.579 232.251 334.084C232.251 333.58 232.148 333.132 231.943 332.74C231.747 332.339 231.476 332.026 231.131 331.802C230.786 331.569 230.389 331.452 229.941 331.452C229.493 331.452 229.096 331.569 228.751 331.802C228.406 332.026 228.13 332.339 227.925 332.74C227.729 333.132 227.631 333.58 227.631 334.084C227.631 334.579 227.729 335.027 227.925 335.428C228.13 335.829 228.406 336.147 228.751 336.38C229.096 336.604 229.493 336.716 229.941 336.716ZM235.052 337.5V330.668H236.074V331.774C236.335 331.363 236.648 331.06 237.012 330.864C237.376 330.659 237.787 330.556 238.244 330.556C238.739 330.556 239.168 330.663 239.532 330.878C239.905 331.083 240.195 331.377 240.4 331.76C240.615 332.133 240.722 332.572 240.722 333.076V337.5H239.7V333.37C239.7 332.763 239.532 332.287 239.196 331.942C238.869 331.587 238.426 331.41 237.866 331.41C237.493 331.41 237.152 331.499 236.844 331.676C236.536 331.853 236.279 332.115 236.074 332.46V337.5H235.052Z" fill="#0066CC"/>
<path d="M151 341H241.73V342.4H151V341Z" fill="#0066CC"/>
<path d="M353.938 322.5C355.146 322.5 356.125 323.479 356.125 324.688C356.125 325.666 355.482 326.494 354.594 326.773V330.711C355.247 330.397 356.045 330.32 356.816 330.249C357.798 330.159 358.725 330.072 359.146 329.547C359.332 329.317 359.431 328.977 359.447 328.537C358.539 328.272 357.875 327.433 357.875 326.438C357.875 325.229 358.854 324.25 360.062 324.25C361.271 324.25 362.25 325.229 362.25 326.438C362.25 327.4 361.627 328.217 360.763 328.513C360.749 329.281 360.555 329.893 360.172 330.369C359.401 331.326 358.093 331.45 356.939 331.557C356.237 331.622 355.576 331.682 355.133 331.906C354.939 332.005 354.809 332.13 354.725 332.272C355.545 332.587 356.125 333.383 356.125 334.312C356.125 335.521 355.146 336.5 353.938 336.5C352.729 336.5 351.75 335.521 351.75 334.312C351.75 333.334 352.393 332.505 353.281 332.224V326.773C352.393 326.494 351.75 325.666 351.75 324.688C351.75 323.479 352.729 322.5 353.938 322.5ZM353.938 333.875C353.697 333.875 353.5 334.072 353.5 334.312C353.5 334.553 353.697 334.75 353.938 334.75C354.178 334.75 354.375 334.553 354.375 334.312C354.375 334.072 354.178 333.875 353.938 333.875ZM360.062 326C359.822 326 359.625 326.197 359.625 326.438C359.625 326.678 359.822 326.875 360.062 326.875C360.303 326.875 360.5 326.678 360.5 326.438C360.5 326.197 360.303 326 360.062 326ZM353.938 324.25C353.697 324.25 353.5 324.447 353.5 324.688C353.5 324.928 353.697 325.125 353.938 325.125C354.178 325.125 354.375 324.928 354.375 324.688C354.375 324.447 354.178 324.25 353.938 324.25Z" fill="#1F1F1F"/>
<path d="M380.6 337.654C379.312 337.654 378.201 337.211 377.268 336.324L377.898 335.638C378.327 336.039 378.752 336.333 379.172 336.52C379.601 336.697 380.082 336.786 380.614 336.786C381.09 336.786 381.51 336.688 381.874 336.492C382.238 336.296 382.518 336.021 382.714 335.666C382.919 335.311 383.022 334.905 383.022 334.448C383.022 333.795 382.798 333.267 382.35 332.866C381.911 332.465 381.333 332.264 380.614 332.264C380.241 332.264 379.877 332.311 379.522 332.404C379.167 332.488 378.799 332.628 378.416 332.824L377.716 332.6L377.94 327.7H383.512V328.582H378.808L378.654 331.97C379.027 331.783 379.387 331.653 379.732 331.578C380.077 331.494 380.441 331.452 380.824 331.452C381.468 331.452 382.028 331.578 382.504 331.83C382.989 332.073 383.363 332.418 383.624 332.866C383.895 333.305 384.03 333.818 384.03 334.406C384.03 335.05 383.885 335.615 383.596 336.1C383.307 336.585 382.905 336.968 382.392 337.248C381.879 337.519 381.281 337.654 380.6 337.654Z" fill="#151515"/>
</g>
<path d="M25 64C25 61.7909 26.7909 60 29 60H59C61.2091 60 63 61.7909 63 64V88C63 90.2091 61.2091 92 59 92H29C26.7909 92 25 90.2091 25 88V64Z" fill="#C806CC"/>
<path d="M43.8879 82V71.254L41.6199 72.208V70.624L44.5359 69.4H45.6699V82H43.8879Z" fill="white"/>
<path d="M104.667 76C104.667 77.4728 103.473 78.6667 102 78.6667C100.527 78.6667 99.3333 77.4728 99.3333 76C99.3333 74.5272 100.527 73.3333 102 73.3333C103.473 73.3333 104.667 74.5272 104.667 76ZM102 76V76.5H63V76V75.5H102V76Z" fill="#C806CC"/>
<path d="M151 82.3333C149.527 82.3333 148.333 83.5272 148.333 85C148.333 86.4728 149.527 87.6667 151 87.6667C152.473 87.6667 153.667 86.4728 153.667 85C153.667 83.5272 152.473 82.3333 151 82.3333ZM151 85L150.5 85L150.5 122L151 122L151.5 122L151.5 85L151 85Z" fill="#C806CC"/>
<path d="M132 126C132 123.791 133.791 122 136 122H166C168.209 122 170 123.791 170 126V150C170 152.209 168.209 154 166 154H136C133.791 154 132 152.209 132 150V126Z" fill="#C806CC"/>
<path d="M146.89 144V142.74L152.002 137.304C152.518 136.764 152.866 136.302 153.046 135.918C153.238 135.534 153.334 135.126 153.334 134.694C153.334 134.13 153.106 133.662 152.65 133.29C152.194 132.918 151.618 132.732 150.922 132.732C150.346 132.732 149.806 132.846 149.302 133.074C148.798 133.302 148.24 133.698 147.628 134.262L146.656 133.074C147.988 131.826 149.422 131.202 150.958 131.202C151.762 131.202 152.47 131.346 153.082 131.634C153.694 131.922 154.168 132.324 154.504 132.84C154.852 133.344 155.026 133.926 155.026 134.586C155.026 135.006 154.972 135.396 154.864 135.756C154.756 136.104 154.57 136.476 154.306 136.872C154.042 137.256 153.67 137.7 153.19 138.204L149.086 142.524L155.278 142.506V144H146.89Z" fill="white"/>
<path d="M18 195C18 192.791 19.7909 191 22 191H52C54.2091 191 56 192.791 56 195V219C56 221.209 54.2091 223 52 223H22C19.7909 223 18 221.209 18 219V195Z" fill="#C806CC"/>
<path d="M36.8587 213.198C35.9587 213.198 35.1127 213.042 34.3207 212.73C33.5407 212.406 32.8627 211.944 32.2867 211.344L33.4567 210.228C33.9607 210.756 34.4707 211.134 34.9867 211.362C35.5147 211.578 36.1327 211.686 36.8407 211.686C37.6927 211.686 38.3827 211.476 38.9107 211.056C39.4507 210.636 39.7207 210.096 39.7207 209.436C39.7207 208.812 39.4927 208.308 39.0367 207.924C38.5927 207.54 38.0167 207.348 37.3087 207.348H35.7787V205.89H37.1827C37.8187 205.89 38.3287 205.704 38.7127 205.332C39.0967 204.96 39.2887 204.474 39.2887 203.874C39.2887 203.466 39.1807 203.106 38.9647 202.794C38.7487 202.47 38.4487 202.218 38.0647 202.038C37.6927 201.846 37.2667 201.75 36.7867 201.75C36.1507 201.75 35.5867 201.864 35.0947 202.092C34.6147 202.308 34.1167 202.692 33.6007 203.244L32.4307 202.128C33.0067 201.504 33.6727 201.03 34.4287 200.706C35.1847 200.37 35.9827 200.202 36.8227 200.202C37.6387 200.202 38.3587 200.352 38.9827 200.652C39.6187 200.952 40.1167 201.366 40.4767 201.894C40.8487 202.422 41.0347 203.028 41.0347 203.712C41.0347 204.384 40.8127 204.978 40.3687 205.494C39.9367 206.01 39.3667 206.37 38.6587 206.574C39.5107 206.754 40.1887 207.114 40.6927 207.654C41.1967 208.182 41.4487 208.806 41.4487 209.526C41.4487 210.234 41.2507 210.864 40.8547 211.416C40.4707 211.968 39.9307 212.406 39.2347 212.73C38.5387 213.042 37.7467 213.198 36.8587 213.198Z" fill="white"/>
<path d="M97.6667 207C97.6667 208.473 96.4728 209.667 95 209.667C93.5272 209.667 92.3333 208.473 92.3333 207C92.3333 205.527 93.5272 204.333 95 204.333C96.4728 204.333 97.6667 205.527 97.6667 207ZM95 207V207.5H56V207V206.5H95V207Z" fill="#C806CC"/>
<path d="M18 257C18 254.791 19.7909 253 22 253H52C54.2091 253 56 254.791 56 257V281C56 283.209 54.2091 285 52 285H22C19.7909 285 18 283.209 18 281V257Z" fill="#C806CC"/>
<path d="M36.8587 275.198C35.9587 275.198 35.1127 275.042 34.3207 274.73C33.5407 274.406 32.8627 273.944 32.2867 273.344L33.4567 272.228C33.9607 272.756 34.4707 273.134 34.9867 273.362C35.5147 273.578 36.1327 273.686 36.8407 273.686C37.6927 273.686 38.3827 273.476 38.9107 273.056C39.4507 272.636 39.7207 272.096 39.7207 271.436C39.7207 270.812 39.4927 270.308 39.0367 269.924C38.5927 269.54 38.0167 269.348 37.3087 269.348H35.7787V267.89H37.1827C37.8187 267.89 38.3287 267.704 38.7127 267.332C39.0967 266.96 39.2887 266.474 39.2887 265.874C39.2887 265.466 39.1807 265.106 38.9647 264.794C38.7487 264.47 38.4487 264.218 38.0647 264.038C37.6927 263.846 37.2667 263.75 36.7867 263.75C36.1507 263.75 35.5867 263.864 35.0947 264.092C34.6147 264.308 34.1167 264.692 33.6007 265.244L32.4307 264.128C33.0067 263.504 33.6727 263.03 34.4287 262.706C35.1847 262.37 35.9827 262.202 36.8227 262.202C37.6387 262.202 38.3587 262.352 38.9827 262.652C39.6187 262.952 40.1167 263.366 40.4767 263.894C40.8487 264.422 41.0347 265.028 41.0347 265.712C41.0347 266.384 40.8127 266.978 40.3687 267.494C39.9367 268.01 39.3667 268.37 38.6587 268.574C39.5107 268.754 40.1887 269.114 40.6927 269.654C41.1967 270.182 41.4487 270.806 41.4487 271.526C41.4487 272.234 41.2507 272.864 40.8547 273.416C40.4707 273.968 39.9307 274.406 39.2347 274.73C38.5387 275.042 37.7467 275.198 36.8587 275.198Z" fill="white"/>
<path d="M97.6667 269C97.6667 270.473 96.4728 271.667 95 271.667C93.5272 271.667 92.3333 270.473 92.3333 269C92.3333 267.527 93.5272 266.333 95 266.333C96.4728 266.333 97.6667 267.527 97.6667 269ZM95 269V269.5H56V269V268.5H95V269Z" fill="#C806CC"/>
<path d="M18 321C18 318.791 19.7909 317 22 317H52C54.2091 317 56 318.791 56 321V345C56 347.209 54.2091 349 52 349H22C19.7909 349 18 347.209 18 345V321Z" fill="#C806CC"/>
<path d="M38.8664 339V335.796H31.7204V334.374L38.6504 326.4H40.6484V334.284H42.1784V335.796H40.6484V339H38.8664ZM33.8624 334.284H38.8664V328.524L33.8624 334.284Z" fill="white"/>
<path d="M97.6667 333C97.6667 334.473 96.4728 335.667 95 335.667C93.5272 335.667 92.3333 334.473 92.3333 333C92.3333 331.527 93.5272 330.333 95 330.333C96.4728 330.333 97.6667 331.527 97.6667 333ZM95 333V333.5H56V333V332.5H95V333Z" fill="#C806CC"/>
</g>
<defs>
<clipPath id="clip0_3445_23325">
<rect width="452" height="365" fill="white"/>
</clipPath>
<clipPath id="clip1_3445_23325">
<rect width="867" height="315" fill="white" transform="translate(79 40)"/>
</clipPath>
</defs>
</svg>
