<svg width="402" height="219" viewBox="0 0 402 219" fill="none" xmlns="http://www.w3.org/2000/svg">
<rect width="402" height="219" fill="white"/>
<mask id="path-1-inside-1_3450_25938" fill="white">
<path d="M45 158C45 154.686 47.6863 152 51 152H93V189H51C47.6863 189 45 186.314 45 183V158Z"/>
</mask>
<path d="M45 158C45 154.686 47.6863 152 51 152H93V189H51C47.6863 189 45 186.314 45 183V158Z" fill="white"/>
<path d="M93 152H94V151H93V152ZM93 189V190H94V189H93ZM51 152V153H93V152V151H51V152ZM93 152H92V189H93H94V152H93ZM93 189V188H51V189V190H93V189ZM45 183H46V158H45H44V183H45ZM51 189V188C48.2386 188 46 185.761 46 183H45H44C44 186.866 47.134 190 51 190V189ZM51 152V151C47.134 151 44 154.134 44 158H45H46C46 155.239 48.2386 153 51 153V152Z" fill="#C7C7C7" mask="url(#path-1-inside-1_3450_25938)"/>
<mask id="path-3-inside-2_3450_25938" fill="white">
<path d="M61 166.5C61 164.291 62.7909 162.5 65 162.5H73C75.2091 162.5 77 164.291 77 166.5V174.5C77 176.709 75.2091 178.5 73 178.5H65C62.7909 178.5 61 176.709 61 174.5V166.5Z"/>
</mask>
<path d="M61 166.5C61 164.291 62.7909 162.5 65 162.5H73C75.2091 162.5 77 164.291 77 166.5V174.5C77 176.709 75.2091 178.5 73 178.5H65C62.7909 178.5 61 176.709 61 174.5V166.5Z" fill="white"/>
<path d="M65 162.5V163.5H73V162.5V161.5H65V162.5ZM77 166.5H76V174.5H77H78V166.5H77ZM73 178.5V177.5H65V178.5V179.5H73V178.5ZM61 174.5H62V166.5H61H60V174.5H61ZM65 178.5V177.5C63.3431 177.5 62 176.157 62 174.5H61H60C60 177.261 62.2386 179.5 65 179.5V178.5ZM77 174.5H76C76 176.157 74.6569 177.5 73 177.5V178.5V179.5C75.7614 179.5 78 177.261 78 174.5H77ZM73 162.5V163.5C74.6569 163.5 76 164.843 76 166.5H77H78C78 163.739 75.7614 161.5 73 161.5V162.5ZM65 162.5V161.5C62.2386 161.5 60 163.739 60 166.5H61H62C62 164.843 63.3431 163.5 65 163.5V162.5Z" fill="#C7C7C7" mask="url(#path-3-inside-2_3450_25938)"/>
<mask id="path-5-inside-3_3450_25938" fill="white">
<path d="M92 152H132C135.314 152 138 154.686 138 158V183C138 186.314 135.314 189 132 189H92V152Z"/>
</mask>
<path d="M92 152H132C135.314 152 138 154.686 138 158V183C138 186.314 135.314 189 132 189H92V152Z" fill="white"/>
<path d="M92 152V151H91V152H92ZM92 189H91V190H92V189ZM92 152V153H132V152V151H92V152ZM138 158H137V183H138H139V158H138ZM132 189V188H92V189V190H132V189ZM92 189H93V152H92H91V189H92ZM138 183H137C137 185.761 134.761 188 132 188V189V190C135.866 190 139 186.866 139 183H138ZM132 152V153C134.761 153 137 155.239 137 158H138H139C139 154.134 135.866 151 132 151V152Z" fill="#C7C7C7" mask="url(#path-5-inside-3_3450_25938)"/>
<path d="M118.534 168.167C119.023 168.167 119.267 168.762 118.921 169.11L115.389 172.672C115.174 172.887 114.825 172.887 114.611 172.672L111.079 169.11C110.733 168.762 110.978 168.167 111.467 168.167H118.534Z" fill="#1F1F1F"/>
<mask id="path-8-inside-4_3450_25938" fill="white">
<path d="M193 66C193 62.6863 195.686 60 199 60H314V97H199C195.686 97 193 94.3137 193 91V66Z"/>
</mask>
<path d="M193 66C193 62.6863 195.686 60 199 60H314V97H199C195.686 97 193 94.3137 193 91V66Z" fill="white"/>
<path d="M314 60H315V59H314V60ZM314 97V98H315V97H314ZM199 60V61H314V60V59H199V60ZM314 60H313V97H314H315V60H314ZM314 97V96H199V97V98H314V97ZM193 91H194V66H193H192V91H193ZM199 97V96C196.239 96 194 93.7614 194 91H193H192C192 94.866 195.134 98 199 98V97ZM199 60V59C195.134 59 192 62.134 192 66H193H194C194 63.2386 196.239 61 199 61V60Z" fill="#C7C7C7" mask="url(#path-8-inside-4_3450_25938)"/>
<path d="M209 74.5C209 72.2909 210.791 70.5 213 70.5H221C223.209 70.5 225 72.2909 225 74.5V82.5C225 84.7091 223.209 86.5 221 86.5H213C210.791 86.5 209 84.7091 209 82.5V74.5Z" fill="#0066CC"/>
<path d="M222.143 77C222.616 77 223 77.3841 223 77.8574V78.7139C223 79.1872 222.616 79.5713 222.143 79.5713H211.857C211.384 79.5713 211 79.1872 211 78.7139V77.8574C211 77.3841 211.384 77 211.857 77H222.143Z" fill="white"/>
<path d="M233.714 83V82.258L237.634 77.974C237.942 77.638 238.18 77.344 238.348 77.092C238.525 76.8307 238.647 76.588 238.712 76.364C238.787 76.14 238.824 75.902 238.824 75.65C238.824 75.1553 238.628 74.7493 238.236 74.432C237.853 74.1053 237.363 73.942 236.766 73.942C236.309 73.942 235.884 74.0307 235.492 74.208C235.1 74.3853 234.661 74.6933 234.176 75.132L233.588 74.432C234.101 73.9653 234.619 73.62 235.142 73.396C235.665 73.1627 236.211 73.046 236.78 73.046C237.368 73.046 237.891 73.158 238.348 73.382C238.805 73.5967 239.165 73.8953 239.426 74.278C239.687 74.6607 239.818 75.0993 239.818 75.594C239.818 75.9207 239.776 76.224 239.692 76.504C239.608 76.7747 239.459 77.0687 239.244 77.386C239.029 77.694 238.721 78.0673 238.32 78.506L234.974 82.132L240.028 82.118V83H233.714ZM247.102 83.14C246.542 83.14 246.024 83.056 245.548 82.888C245.072 82.7107 244.666 82.4587 244.33 82.132L244.876 81.46C245.286 81.7587 245.664 81.978 246.01 82.118C246.355 82.2487 246.71 82.314 247.074 82.314C247.568 82.314 247.979 82.1973 248.306 81.964C248.632 81.7307 248.796 81.432 248.796 81.068C248.796 80.788 248.698 80.5687 248.502 80.41C248.315 80.2513 248.002 80.13 247.564 80.046L246.444 79.85C245.781 79.7287 245.291 79.5233 244.974 79.234C244.666 78.9447 244.512 78.5527 244.512 78.058C244.512 77.666 244.614 77.3207 244.82 77.022C245.034 76.7233 245.328 76.49 245.702 76.322C246.075 76.1447 246.5 76.056 246.976 76.056C247.442 76.056 247.886 76.126 248.306 76.266C248.726 76.3967 249.15 76.6113 249.58 76.91L249.076 77.624C248.721 77.372 248.366 77.19 248.012 77.078C247.657 76.9567 247.298 76.896 246.934 76.896C246.486 76.896 246.126 76.994 245.856 77.19C245.585 77.386 245.45 77.652 245.45 77.988C245.45 78.268 245.534 78.4827 245.702 78.632C245.879 78.7813 246.187 78.8933 246.626 78.968L247.774 79.178C248.464 79.2993 248.968 79.5093 249.286 79.808C249.603 80.1067 249.762 80.508 249.762 81.012C249.762 81.4133 249.645 81.7773 249.412 82.104C249.178 82.4213 248.861 82.6733 248.46 82.86C248.058 83.0467 247.606 83.14 247.102 83.14ZM254.466 83.14C253.831 83.14 253.257 82.986 252.744 82.678C252.231 82.3607 251.825 81.936 251.526 81.404C251.227 80.8627 251.078 80.256 251.078 79.584C251.078 78.912 251.218 78.31 251.498 77.778C251.787 77.246 252.175 76.826 252.66 76.518C253.145 76.21 253.687 76.056 254.284 76.056C254.891 76.056 255.427 76.21 255.894 76.518C256.37 76.8167 256.743 77.2273 257.014 77.75C257.294 78.2633 257.434 78.8467 257.434 79.5V79.808H252.072C252.109 80.2747 252.235 80.6947 252.45 81.068C252.674 81.432 252.963 81.7213 253.318 81.936C253.682 82.1413 254.079 82.244 254.508 82.244C254.863 82.244 255.203 82.1833 255.53 82.062C255.866 81.9313 256.151 81.7587 256.384 81.544L257.028 82.23C256.636 82.538 256.23 82.7667 255.81 82.916C255.39 83.0653 254.942 83.14 254.466 83.14ZM252.1 79.08H256.426C256.379 78.6693 256.253 78.3053 256.048 77.988C255.852 77.6613 255.6 77.4047 255.292 77.218C254.993 77.0313 254.657 76.938 254.284 76.938C253.911 76.938 253.57 77.0313 253.262 77.218C252.954 77.3953 252.697 77.6473 252.492 77.974C252.296 78.2913 252.165 78.66 252.1 79.08ZM259.179 83V72.892L260.201 72.682V83H259.179ZM265.376 83.14C264.741 83.14 264.167 82.986 263.654 82.678C263.141 82.3607 262.735 81.936 262.436 81.404C262.137 80.8627 261.988 80.256 261.988 79.584C261.988 78.912 262.128 78.31 262.408 77.778C262.697 77.246 263.085 76.826 263.57 76.518C264.055 76.21 264.597 76.056 265.194 76.056C265.801 76.056 266.337 76.21 266.804 76.518C267.28 76.8167 267.653 77.2273 267.924 77.75C268.204 78.2633 268.344 78.8467 268.344 79.5V79.808H262.982C263.019 80.2747 263.145 80.6947 263.36 81.068C263.584 81.432 263.873 81.7213 264.228 81.936C264.592 82.1413 264.989 82.244 265.418 82.244C265.773 82.244 266.113 82.1833 266.44 82.062C266.776 81.9313 267.061 81.7587 267.294 81.544L267.938 82.23C267.546 82.538 267.14 82.7667 266.72 82.916C266.3 83.0653 265.852 83.14 265.376 83.14ZM263.01 79.08H267.336C267.289 78.6693 267.163 78.3053 266.958 77.988C266.762 77.6613 266.51 77.4047 266.202 77.218C265.903 77.0313 265.567 76.938 265.194 76.938C264.821 76.938 264.48 77.0313 264.172 77.218C263.864 77.3953 263.607 77.6473 263.402 77.974C263.206 78.2913 263.075 78.66 263.01 79.08ZM273.155 83.112C272.52 83.112 271.946 82.958 271.433 82.65C270.929 82.3327 270.528 81.908 270.229 81.376C269.93 80.8347 269.781 80.2373 269.781 79.584C269.781 78.9213 269.93 78.324 270.229 77.792C270.528 77.26 270.929 76.84 271.433 76.532C271.946 76.2147 272.52 76.056 273.155 76.056C273.659 76.056 274.14 76.1493 274.597 76.336C275.054 76.5227 275.451 76.784 275.787 77.12L275.129 77.834C274.886 77.5633 274.592 77.3533 274.247 77.204C273.902 77.0547 273.552 76.98 273.197 76.98C272.749 76.98 272.343 77.0967 271.979 77.33C271.624 77.5633 271.34 77.876 271.125 78.268C270.91 78.66 270.803 79.0987 270.803 79.584C270.803 80.0693 270.91 80.508 271.125 80.9C271.34 81.292 271.624 81.6047 271.979 81.838C272.343 82.0713 272.749 82.188 273.197 82.188C273.552 82.188 273.902 82.1133 274.247 81.964C274.592 81.8053 274.886 81.5953 275.129 81.334L275.787 82.048C275.451 82.384 275.054 82.6453 274.597 82.832C274.14 83.0187 273.659 83.112 273.155 83.112ZM279.953 83.14C279.365 83.14 278.917 83 278.609 82.72C278.31 82.4307 278.161 82.0153 278.161 81.474V77.008H276.747V76.168H278.161V74.292L279.183 74.054V76.168H281.143V77.008H279.183V81.208C279.183 81.572 279.257 81.8333 279.407 81.992C279.565 82.1507 279.822 82.23 280.177 82.23C280.354 82.23 280.513 82.216 280.653 82.188C280.793 82.16 280.956 82.1133 281.143 82.048V82.958C280.956 83.0233 280.76 83.07 280.555 83.098C280.349 83.126 280.149 83.14 279.953 83.14ZM285.583 83.14C284.948 83.14 284.374 82.986 283.861 82.678C283.348 82.3607 282.942 81.936 282.643 81.404C282.344 80.8627 282.195 80.256 282.195 79.584C282.195 78.912 282.335 78.31 282.615 77.778C282.904 77.246 283.292 76.826 283.777 76.518C284.262 76.21 284.804 76.056 285.401 76.056C286.008 76.056 286.544 76.21 287.011 76.518C287.487 76.8167 287.86 77.2273 288.131 77.75C288.411 78.2633 288.551 78.8467 288.551 79.5V79.808H283.189C283.226 80.2747 283.352 80.6947 283.567 81.068C283.791 81.432 284.08 81.7213 284.435 81.936C284.799 82.1413 285.196 82.244 285.625 82.244C285.98 82.244 286.32 82.1833 286.647 82.062C286.983 81.9313 287.268 81.7587 287.501 81.544L288.145 82.23C287.753 82.538 287.347 82.7667 286.927 82.916C286.507 83.0653 286.059 83.14 285.583 83.14ZM283.217 79.08H287.543C287.496 78.6693 287.37 78.3053 287.165 77.988C286.969 77.6613 286.717 77.4047 286.409 77.218C286.11 77.0313 285.774 76.938 285.401 76.938C285.028 76.938 284.687 77.0313 284.379 77.218C284.071 77.3953 283.814 77.6473 283.609 77.974C283.413 78.2913 283.282 78.66 283.217 79.08ZM293.138 83.098C292.55 83.098 292.018 82.944 291.542 82.636C291.066 82.3187 290.688 81.8987 290.408 81.376C290.128 80.844 289.988 80.2513 289.988 79.598C289.988 78.9353 290.128 78.3427 290.408 77.82C290.697 77.288 291.085 76.868 291.57 76.56C292.055 76.2427 292.597 76.084 293.194 76.084C293.614 76.084 294.006 76.168 294.37 76.336C294.734 76.4947 295.051 76.728 295.322 77.036V72.892L296.344 72.682V83H295.322V82.09C295.061 82.4167 294.743 82.6687 294.37 82.846C293.997 83.014 293.586 83.098 293.138 83.098ZM293.39 82.202C293.791 82.202 294.16 82.1227 294.496 81.964C294.832 81.8053 295.107 81.5813 295.322 81.292V77.904C295.098 77.6147 294.813 77.3907 294.468 77.232C294.132 77.064 293.773 76.98 293.39 76.98C292.933 76.98 292.522 77.092 292.158 77.316C291.803 77.54 291.519 77.848 291.304 78.24C291.099 78.632 290.996 79.08 290.996 79.584C290.996 80.0787 291.099 80.5267 291.304 80.928C291.519 81.32 291.803 81.6327 292.158 81.866C292.522 82.09 292.933 82.202 293.39 82.202Z" fill="#151515"/>
<mask id="path-13-inside-5_3450_25938" fill="white">
<path d="M313 60H353C356.314 60 359 62.6863 359 66V91C359 94.3137 356.314 97 353 97H313V60Z"/>
</mask>
<path d="M313 60H353C356.314 60 359 62.6863 359 66V91C359 94.3137 356.314 97 353 97H313V60Z" fill="white"/>
<path d="M313 60V59H312V60H313ZM313 97H312V98H313V97ZM313 60V61H353V60V59H313V60ZM359 66H358V91H359H360V66H359ZM353 97V96H313V97V98H353V97ZM313 97H314V60H313H312V97H313ZM359 91H358C358 93.7614 355.761 96 353 96V97V98C356.866 98 360 94.866 360 91H359ZM353 60V61C355.761 61 358 63.2386 358 66H359H360C360 62.134 356.866 59 353 59V60Z" fill="#C7C7C7" mask="url(#path-13-inside-5_3450_25938)"/>
<path d="M339.534 76.167C340.023 76.1672 340.267 76.7618 339.921 77.1104L336.389 80.6719C336.174 80.8874 335.825 80.8875 335.611 80.6719L332.079 77.1104C331.733 76.7617 331.978 76.167 332.467 76.167H339.534Z" fill="#1F1F1F"/>
<mask id="path-16-inside-6_3450_25938" fill="white">
<path d="M193 158C193 154.686 195.686 152 199 152H314V189H199C195.686 189 193 186.314 193 183V158Z"/>
</mask>
<path d="M193 158C193 154.686 195.686 152 199 152H314V189H199C195.686 189 193 186.314 193 183V158Z" fill="white"/>
<path d="M314 152H315V151H314V152ZM314 189V190H315V189H314ZM199 152V153H314V152V151H199V152ZM314 152H313V189H314H315V152H314ZM314 189V188H199V189V190H314V189ZM193 183H194V158H193H192V183H193ZM199 189V188C196.239 188 194 185.761 194 183H193H192C192 186.866 195.134 190 199 190V189ZM199 152V151C195.134 151 192 154.134 192 158H193H194C194 155.239 196.239 153 199 153V152Z" fill="#C7C7C7" mask="url(#path-16-inside-6_3450_25938)"/>
<path d="M209 166.5C209 164.291 210.791 162.5 213 162.5H221C223.209 162.5 225 164.291 225 166.5V174.5C225 176.709 223.209 178.5 221 178.5H213C210.791 178.5 209 176.709 209 174.5V166.5Z" fill="#0066CC"/>
<path d="M221.127 166.176C221.361 165.942 221.741 165.942 221.976 166.176L222.824 167.024C223.058 167.259 223.058 167.639 222.824 167.873L215.924 174.773C215.689 175.007 215.309 175.007 215.075 174.773L211.176 170.873C210.941 170.639 210.942 170.259 211.176 170.024L212.024 169.176C212.259 168.942 212.639 168.942 212.873 169.176L215.5 171.803L221.127 166.176Z" fill="white"/>
<path d="M236.85 175.154C235.562 175.154 234.451 174.711 233.518 173.824L234.148 173.138C234.577 173.539 235.002 173.833 235.422 174.02C235.851 174.197 236.332 174.286 236.864 174.286C237.34 174.286 237.76 174.188 238.124 173.992C238.488 173.796 238.768 173.521 238.964 173.166C239.169 172.811 239.272 172.405 239.272 171.948C239.272 171.295 239.048 170.767 238.6 170.366C238.161 169.965 237.583 169.764 236.864 169.764C236.491 169.764 236.127 169.811 235.772 169.904C235.417 169.988 235.049 170.128 234.666 170.324L233.966 170.1L234.19 165.2H239.762V166.082H235.058L234.904 169.47C235.277 169.283 235.637 169.153 235.982 169.078C236.327 168.994 236.691 168.952 237.074 168.952C237.718 168.952 238.278 169.078 238.754 169.33C239.239 169.573 239.613 169.918 239.874 170.366C240.145 170.805 240.28 171.318 240.28 171.906C240.28 172.55 240.135 173.115 239.846 173.6C239.557 174.085 239.155 174.468 238.642 174.748C238.129 175.019 237.531 175.154 236.85 175.154ZM247.416 175.14C246.856 175.14 246.338 175.056 245.862 174.888C245.386 174.711 244.98 174.459 244.644 174.132L245.19 173.46C245.601 173.759 245.979 173.978 246.324 174.118C246.669 174.249 247.024 174.314 247.388 174.314C247.883 174.314 248.293 174.197 248.62 173.964C248.947 173.731 249.11 173.432 249.11 173.068C249.11 172.788 249.012 172.569 248.816 172.41C248.629 172.251 248.317 172.13 247.878 172.046L246.758 171.85C246.095 171.729 245.605 171.523 245.288 171.234C244.98 170.945 244.826 170.553 244.826 170.058C244.826 169.666 244.929 169.321 245.134 169.022C245.349 168.723 245.643 168.49 246.016 168.322C246.389 168.145 246.814 168.056 247.29 168.056C247.757 168.056 248.2 168.126 248.62 168.266C249.04 168.397 249.465 168.611 249.894 168.91L249.39 169.624C249.035 169.372 248.681 169.19 248.326 169.078C247.971 168.957 247.612 168.896 247.248 168.896C246.8 168.896 246.441 168.994 246.17 169.19C245.899 169.386 245.764 169.652 245.764 169.988C245.764 170.268 245.848 170.483 246.016 170.632C246.193 170.781 246.501 170.893 246.94 170.968L248.088 171.178C248.779 171.299 249.283 171.509 249.6 171.808C249.917 172.107 250.076 172.508 250.076 173.012C250.076 173.413 249.959 173.777 249.726 174.104C249.493 174.421 249.175 174.673 248.774 174.86C248.373 175.047 247.92 175.14 247.416 175.14ZM254.78 175.14C254.146 175.14 253.572 174.986 253.058 174.678C252.545 174.361 252.139 173.936 251.84 173.404C251.542 172.863 251.392 172.256 251.392 171.584C251.392 170.912 251.532 170.31 251.812 169.778C252.102 169.246 252.489 168.826 252.974 168.518C253.46 168.21 254.001 168.056 254.598 168.056C255.205 168.056 255.742 168.21 256.208 168.518C256.684 168.817 257.058 169.227 257.328 169.75C257.608 170.263 257.748 170.847 257.748 171.5V171.808H252.386C252.424 172.275 252.55 172.695 252.764 173.068C252.988 173.432 253.278 173.721 253.632 173.936C253.996 174.141 254.393 174.244 254.822 174.244C255.177 174.244 255.518 174.183 255.844 174.062C256.18 173.931 256.465 173.759 256.698 173.544L257.342 174.23C256.95 174.538 256.544 174.767 256.124 174.916C255.704 175.065 255.256 175.14 254.78 175.14ZM252.414 171.08H256.74C256.694 170.669 256.568 170.305 256.362 169.988C256.166 169.661 255.914 169.405 255.606 169.218C255.308 169.031 254.972 168.938 254.598 168.938C254.225 168.938 253.884 169.031 253.576 169.218C253.268 169.395 253.012 169.647 252.806 169.974C252.61 170.291 252.48 170.66 252.414 171.08ZM259.493 175V164.892L260.515 164.682V175H259.493ZM265.691 175.14C265.056 175.14 264.482 174.986 263.969 174.678C263.455 174.361 263.049 173.936 262.751 173.404C262.452 172.863 262.303 172.256 262.303 171.584C262.303 170.912 262.443 170.31 262.723 169.778C263.012 169.246 263.399 168.826 263.885 168.518C264.37 168.21 264.911 168.056 265.509 168.056C266.115 168.056 266.652 168.21 267.119 168.518C267.595 168.817 267.968 169.227 268.239 169.75C268.519 170.263 268.659 170.847 268.659 171.5V171.808H263.297C263.334 172.275 263.46 172.695 263.675 173.068C263.899 173.432 264.188 173.721 264.543 173.936C264.907 174.141 265.303 174.244 265.733 174.244C266.087 174.244 266.428 174.183 266.755 174.062C267.091 173.931 267.375 173.759 267.609 173.544L268.253 174.23C267.861 174.538 267.455 174.767 267.035 174.916C266.615 175.065 266.167 175.14 265.691 175.14ZM263.325 171.08H267.651C267.604 170.669 267.478 170.305 267.273 169.988C267.077 169.661 266.825 169.405 266.517 169.218C266.218 169.031 265.882 168.938 265.509 168.938C265.135 168.938 264.795 169.031 264.487 169.218C264.179 169.395 263.922 169.647 263.717 169.974C263.521 170.291 263.39 170.66 263.325 171.08ZM273.47 175.112C272.835 175.112 272.261 174.958 271.748 174.65C271.244 174.333 270.842 173.908 270.544 173.376C270.245 172.835 270.096 172.237 270.096 171.584C270.096 170.921 270.245 170.324 270.544 169.792C270.842 169.26 271.244 168.84 271.748 168.532C272.261 168.215 272.835 168.056 273.47 168.056C273.974 168.056 274.454 168.149 274.912 168.336C275.369 168.523 275.766 168.784 276.102 169.12L275.444 169.834C275.201 169.563 274.907 169.353 274.562 169.204C274.216 169.055 273.866 168.98 273.512 168.98C273.064 168.98 272.658 169.097 272.294 169.33C271.939 169.563 271.654 169.876 271.44 170.268C271.225 170.66 271.118 171.099 271.118 171.584C271.118 172.069 271.225 172.508 271.44 172.9C271.654 173.292 271.939 173.605 272.294 173.838C272.658 174.071 273.064 174.188 273.512 174.188C273.866 174.188 274.216 174.113 274.562 173.964C274.907 173.805 275.201 173.595 275.444 173.334L276.102 174.048C275.766 174.384 275.369 174.645 274.912 174.832C274.454 175.019 273.974 175.112 273.47 175.112ZM280.267 175.14C279.679 175.14 279.231 175 278.923 174.72C278.625 174.431 278.475 174.015 278.475 173.474V169.008H277.061V168.168H278.475V166.292L279.497 166.054V168.168H281.457V169.008H279.497V173.208C279.497 173.572 279.572 173.833 279.721 173.992C279.88 174.151 280.137 174.23 280.491 174.23C280.669 174.23 280.827 174.216 280.967 174.188C281.107 174.16 281.271 174.113 281.457 174.048V174.958C281.271 175.023 281.075 175.07 280.869 175.098C280.664 175.126 280.463 175.14 280.267 175.14ZM285.898 175.14C285.263 175.14 284.689 174.986 284.176 174.678C283.662 174.361 283.256 173.936 282.958 173.404C282.659 172.863 282.51 172.256 282.51 171.584C282.51 170.912 282.65 170.31 282.93 169.778C283.219 169.246 283.606 168.826 284.092 168.518C284.577 168.21 285.118 168.056 285.716 168.056C286.322 168.056 286.859 168.21 287.326 168.518C287.802 168.817 288.175 169.227 288.446 169.75C288.726 170.263 288.866 170.847 288.866 171.5V171.808H283.504C283.541 172.275 283.667 172.695 283.882 173.068C284.106 173.432 284.395 173.721 284.75 173.936C285.114 174.141 285.51 174.244 285.94 174.244C286.294 174.244 286.635 174.183 286.962 174.062C287.298 173.931 287.582 173.759 287.816 173.544L288.46 174.23C288.068 174.538 287.662 174.767 287.242 174.916C286.822 175.065 286.374 175.14 285.898 175.14ZM283.532 171.08H287.858C287.811 170.669 287.685 170.305 287.48 169.988C287.284 169.661 287.032 169.405 286.724 169.218C286.425 169.031 286.089 168.938 285.716 168.938C285.342 168.938 285.002 169.031 284.694 169.218C284.386 169.395 284.129 169.647 283.924 169.974C283.728 170.291 283.597 170.66 283.532 171.08ZM293.453 175.098C292.865 175.098 292.333 174.944 291.857 174.636C291.381 174.319 291.003 173.899 290.723 173.376C290.443 172.844 290.303 172.251 290.303 171.598C290.303 170.935 290.443 170.343 290.723 169.82C291.012 169.288 291.399 168.868 291.885 168.56C292.37 168.243 292.911 168.084 293.509 168.084C293.929 168.084 294.321 168.168 294.685 168.336C295.049 168.495 295.366 168.728 295.637 169.036V164.892L296.659 164.682V175H295.637V174.09C295.375 174.417 295.058 174.669 294.685 174.846C294.311 175.014 293.901 175.098 293.453 175.098ZM293.705 174.202C294.106 174.202 294.475 174.123 294.811 173.964C295.147 173.805 295.422 173.581 295.637 173.292V169.904C295.413 169.615 295.128 169.391 294.783 169.232C294.447 169.064 294.087 168.98 293.705 168.98C293.247 168.98 292.837 169.092 292.473 169.316C292.118 169.54 291.833 169.848 291.619 170.24C291.413 170.632 291.311 171.08 291.311 171.584C291.311 172.079 291.413 172.527 291.619 172.928C291.833 173.32 292.118 173.633 292.473 173.866C292.837 174.09 293.247 174.202 293.705 174.202Z" fill="#151515"/>
<mask id="path-21-inside-7_3450_25938" fill="white">
<path d="M313 152H353C356.314 152 359 154.686 359 158V183C359 186.314 356.314 189 353 189H313V152Z"/>
</mask>
<path d="M313 152H353C356.314 152 359 154.686 359 158V183C359 186.314 356.314 189 353 189H313V152Z" fill="white"/>
<path d="M313 152V151H312V152H313ZM313 189H312V190H313V189ZM313 152V153H353V152V151H313V152ZM359 158H358V183H359H360V158H359ZM353 189V188H313V189V190H353V189ZM313 189H314V152H313H312V189H313ZM359 183H358C358 185.761 355.761 188 353 188V189V190C356.866 190 360 186.866 360 183H359ZM353 152V153C355.761 153 358 155.239 358 158H359H360C360 154.134 356.866 151 353 151V152Z" fill="#C7C7C7" mask="url(#path-21-inside-7_3450_25938)"/>
<path d="M339.534 168.167C340.023 168.167 340.267 168.762 339.921 169.11L336.389 172.672C336.174 172.887 335.825 172.887 335.611 172.672L332.079 169.11C331.733 168.762 331.978 168.167 332.467 168.167H339.534Z" fill="#1F1F1F"/>
<mask id="path-24-inside-8_3450_25938" fill="white">
<path d="M43 66C43 62.6863 45.6863 60 49 60H91V97H49C45.6863 97 43 94.3137 43 91V66Z"/>
</mask>
<path d="M43 66C43 62.6863 45.6863 60 49 60H91V97H49C45.6863 97 43 94.3137 43 91V66Z" fill="white"/>
<path d="M91 60H92V59H91V60ZM91 97V98H92V97H91ZM49 60V61H91V60V59H49V60ZM91 60H90V97H91H92V60H91ZM91 97V96H49V97V98H91V97ZM43 91H44V66H43H42V91H43ZM49 97V96C46.2386 96 44 93.7614 44 91H43H42C42 94.866 45.134 98 49 98V97ZM49 60V59C45.134 59 42 62.134 42 66H43H44C44 63.2386 46.2386 61 49 61V60Z" fill="#C7C7C7" mask="url(#path-24-inside-8_3450_25938)"/>
<path d="M59 74.5C59 72.2909 60.7909 70.5 63 70.5H71C73.2091 70.5 75 72.2909 75 74.5V82.5C75 84.7091 73.2091 86.5 71 86.5H63C60.7909 86.5 59 84.7091 59 82.5V74.5Z" fill="#C7C7C7"/>
<path d="M63 70.5V71H71V70.5V70H63V70.5ZM75 74.5H74.5V82.5H75H75.5V74.5H75ZM71 86.5V86H63V86.5V87H71V86.5ZM59 82.5H59.5V74.5H59H58.5V82.5H59ZM63 86.5V86C61.067 86 59.5 84.433 59.5 82.5H59H58.5C58.5 84.9853 60.5147 87 63 87V86.5ZM75 82.5H74.5C74.5 84.433 72.933 86 71 86V86.5V87C73.4853 87 75.5 84.9853 75.5 82.5H75ZM71 70.5V71C72.933 71 74.5 72.567 74.5 74.5H75H75.5C75.5 72.0147 73.4853 70 71 70V70.5ZM63 70.5V70C60.5147 70 58.5 72.0147 58.5 74.5H59H59.5C59.5 72.567 61.067 71 63 71V70.5Z" fill="#A3A3A3"/>
<mask id="path-28-inside-9_3450_25938" fill="white">
<path d="M90 60H130C133.314 60 136 62.6863 136 66V91C136 94.3137 133.314 97 130 97H90V60Z"/>
</mask>
<path d="M90 60H130C133.314 60 136 62.6863 136 66V91C136 94.3137 133.314 97 130 97H90V60Z" fill="white"/>
<path d="M90 60V59H89V60H90ZM90 97H89V98H90V97ZM90 60V61H130V60V59H90V60ZM136 66H135V91H136H137V66H136ZM130 97V96H90V97V98H130V97ZM90 97H91V60H90H89V97H90ZM136 91H135C135 93.7614 132.761 96 130 96V97V98C133.866 98 137 94.866 137 91H136ZM130 60V61C132.761 61 135 63.2386 135 66H136H137C137 62.134 133.866 59 130 59V60Z" fill="#C7C7C7" mask="url(#path-28-inside-9_3450_25938)"/>
<path d="M116.534 76.167C117.023 76.1672 117.267 76.7618 116.921 77.1104L113.389 80.6719C113.174 80.8874 112.825 80.8875 112.611 80.6719L109.079 77.1104C108.733 76.7617 108.978 76.167 109.467 76.167H116.534Z" fill="#1F1F1F"/>
<path d="M66.324 44.034H68.564C69.2733 44.034 69.908 43.8613 70.468 43.516C71.028 43.1707 71.4713 42.704 71.798 42.116C72.134 41.5187 72.302 40.8467 72.302 40.1C72.302 39.3533 72.134 38.686 71.798 38.098C71.4713 37.5007 71.028 37.0293 70.468 36.684C69.908 36.3387 69.2733 36.166 68.564 36.166H66.324V44.034ZM65.246 45V35.2H68.494C69.2127 35.2 69.8707 35.326 70.468 35.578C71.0747 35.8207 71.5927 36.166 72.022 36.614C72.4607 37.0527 72.7967 37.5707 73.03 38.168C73.2727 38.756 73.394 39.4 73.394 40.1C73.394 40.8 73.2727 41.4487 73.03 42.046C72.7967 42.634 72.4607 43.152 72.022 43.6C71.5927 44.0387 71.0747 44.384 70.468 44.636C69.8707 44.8787 69.2127 45 68.494 45H65.246ZM75.2215 45V38.168H76.2435V45H75.2215ZM75.7395 36.474C75.5342 36.474 75.3569 36.404 75.2075 36.264C75.0675 36.1147 74.9975 35.942 74.9975 35.746C74.9975 35.55 75.0675 35.382 75.2075 35.242C75.3569 35.0927 75.5342 35.018 75.7395 35.018C75.9449 35.018 76.1175 35.0927 76.2575 35.242C76.4069 35.382 76.4815 35.55 76.4815 35.746C76.4815 35.942 76.4069 36.1147 76.2575 36.264C76.1175 36.404 75.9449 36.474 75.7395 36.474ZM80.4531 45.14C79.8931 45.14 79.3751 45.056 78.8991 44.888C78.4231 44.7107 78.0171 44.4587 77.6811 44.132L78.2271 43.46C78.6377 43.7587 79.0157 43.978 79.3611 44.118C79.7064 44.2487 80.0611 44.314 80.4251 44.314C80.9197 44.314 81.3304 44.1973 81.6571 43.964C81.9837 43.7307 82.1471 43.432 82.1471 43.068C82.1471 42.788 82.0491 42.5687 81.8531 42.41C81.6664 42.2513 81.3537 42.13 80.9151 42.046L79.7951 41.85C79.1324 41.7287 78.6424 41.5233 78.3251 41.234C78.0171 40.9447 77.8631 40.5527 77.8631 40.058C77.8631 39.666 77.9657 39.3207 78.1711 39.022C78.3857 38.7233 78.6797 38.49 79.0531 38.322C79.4264 38.1447 79.8511 38.056 80.3271 38.056C80.7937 38.056 81.2371 38.126 81.6571 38.266C82.0771 38.3967 82.5017 38.6113 82.9311 38.91L82.4271 39.624C82.0724 39.372 81.7177 39.19 81.3631 39.078C81.0084 38.9567 80.6491 38.896 80.2851 38.896C79.8371 38.896 79.4777 38.994 79.2071 39.19C78.9364 39.386 78.8011 39.652 78.8011 39.988C78.8011 40.268 78.8851 40.4827 79.0531 40.632C79.2304 40.7813 79.5384 40.8933 79.9771 40.968L81.1251 41.178C81.8157 41.2993 82.3197 41.5093 82.6371 41.808C82.9544 42.1067 83.1131 42.508 83.1131 43.012C83.1131 43.4133 82.9964 43.7773 82.7631 44.104C82.5297 44.4213 82.2124 44.6733 81.8111 44.86C81.4097 45.0467 80.9571 45.14 80.4531 45.14ZM86.8515 45.126C86.3662 45.126 85.9368 45.0373 85.5635 44.86C85.1902 44.6827 84.8962 44.44 84.6815 44.132C84.4762 43.8147 84.3735 43.4507 84.3735 43.04C84.3735 42.6293 84.4808 42.2747 84.6955 41.976C84.9102 41.668 85.2088 41.43 85.5915 41.262C85.9742 41.094 86.4222 41.01 86.9355 41.01C87.3275 41.01 87.6962 41.052 88.0415 41.136C88.3962 41.22 88.7228 41.3553 89.0215 41.542V40.604C89.0215 40.044 88.8722 39.624 88.5735 39.344C88.2748 39.0547 87.8362 38.91 87.2575 38.91C86.9402 38.91 86.6135 38.9567 86.2775 39.05C85.9508 39.1433 85.5868 39.2927 85.1855 39.498L84.8075 38.714C85.7222 38.2753 86.5808 38.056 87.3835 38.056C88.2328 38.056 88.8862 38.266 89.3435 38.686C89.8008 39.0967 90.0295 39.6893 90.0295 40.464V45H89.0215V44.202C88.7228 44.51 88.3915 44.7433 88.0275 44.902C87.6635 45.0513 87.2715 45.126 86.8515 45.126ZM85.3535 43.012C85.3535 43.4133 85.5075 43.7353 85.8155 43.978C86.1328 44.2207 86.5482 44.342 87.0615 44.342C87.4442 44.342 87.7942 44.2767 88.1115 44.146C88.4382 44.0153 88.7415 43.8193 89.0215 43.558V42.242C88.7322 42.074 88.4335 41.9527 88.1255 41.878C87.8175 41.794 87.4722 41.752 87.0895 41.752C86.5668 41.752 86.1468 41.8687 85.8295 42.102C85.5122 42.326 85.3535 42.6293 85.3535 43.012ZM92.1066 45V34.99L93.1286 34.78V39.106C93.39 38.7793 93.7073 38.5273 94.0806 38.35C94.454 38.1727 94.8693 38.084 95.3266 38.084C95.924 38.084 96.456 38.2427 96.9226 38.56C97.3986 38.868 97.7766 39.288 98.0566 39.82C98.3366 40.3427 98.4766 40.9307 98.4766 41.584C98.4766 42.2373 98.332 42.83 98.0426 43.362C97.7626 43.894 97.38 44.3187 96.8946 44.636C96.4186 44.944 95.8773 45.098 95.2706 45.098C94.8413 45.098 94.44 45.014 94.0666 44.846C93.7026 44.6687 93.3853 44.4213 93.1146 44.104V45H92.1066ZM95.0746 44.216C95.532 44.216 95.938 44.104 96.2926 43.88C96.6566 43.6467 96.9413 43.334 97.1466 42.942C97.3613 42.5407 97.4686 42.0927 97.4686 41.598C97.4686 41.094 97.3613 40.646 97.1466 40.254C96.9413 39.862 96.6566 39.554 96.2926 39.33C95.938 39.0967 95.532 38.98 95.0746 38.98C94.6733 38.98 94.3 39.064 93.9546 39.232C93.6186 39.3907 93.3433 39.6193 93.1286 39.918V43.264C93.3526 43.5627 93.6326 43.796 93.9686 43.964C94.314 44.132 94.6826 44.216 95.0746 44.216ZM100.269 45V34.892L101.291 34.682V45H100.269ZM106.466 45.14C105.831 45.14 105.257 44.986 104.744 44.678C104.231 44.3607 103.825 43.936 103.526 43.404C103.227 42.8627 103.078 42.256 103.078 41.584C103.078 40.912 103.218 40.31 103.498 39.778C103.787 39.246 104.175 38.826 104.66 38.518C105.145 38.21 105.687 38.056 106.284 38.056C106.891 38.056 107.427 38.21 107.894 38.518C108.37 38.8167 108.743 39.2273 109.014 39.75C109.294 40.2633 109.434 40.8467 109.434 41.5V41.808H104.072C104.109 42.2747 104.235 42.6947 104.45 43.068C104.674 43.432 104.963 43.7213 105.318 43.936C105.682 44.1413 106.079 44.244 106.508 44.244C106.863 44.244 107.203 44.1833 107.53 44.062C107.866 43.9313 108.151 43.7587 108.384 43.544L109.028 44.23C108.636 44.538 108.23 44.7667 107.81 44.916C107.39 45.0653 106.942 45.14 106.466 45.14ZM104.1 41.08H108.426C108.379 40.6693 108.253 40.3053 108.048 39.988C107.852 39.6613 107.6 39.4047 107.292 39.218C106.993 39.0313 106.657 38.938 106.284 38.938C105.911 38.938 105.57 39.0313 105.262 39.218C104.954 39.3953 104.697 39.6473 104.492 39.974C104.296 40.2913 104.165 40.66 104.1 41.08ZM114.021 45.098C113.433 45.098 112.901 44.944 112.425 44.636C111.949 44.3187 111.571 43.8987 111.291 43.376C111.011 42.844 110.871 42.2513 110.871 41.598C110.871 40.9353 111.011 40.3427 111.291 39.82C111.58 39.288 111.968 38.868 112.453 38.56C112.938 38.2427 113.48 38.084 114.077 38.084C114.497 38.084 114.889 38.168 115.253 38.336C115.617 38.4947 115.934 38.728 116.205 39.036V34.892L117.227 34.682V45H116.205V44.09C115.944 44.4167 115.626 44.6687 115.253 44.846C114.88 45.014 114.469 45.098 114.021 45.098ZM114.273 44.202C114.674 44.202 115.043 44.1227 115.379 43.964C115.715 43.8053 115.99 43.5813 116.205 43.292V39.904C115.981 39.6147 115.696 39.3907 115.351 39.232C115.015 39.064 114.656 38.98 114.273 38.98C113.816 38.98 113.405 39.092 113.041 39.316C112.686 39.54 112.402 39.848 112.187 40.24C111.982 40.632 111.879 41.08 111.879 41.584C111.879 42.0787 111.982 42.5267 112.187 42.928C112.402 43.32 112.686 43.6327 113.041 43.866C113.405 44.09 113.816 44.202 114.273 44.202Z" fill="#4D4D4D"/>
<path d="M61.984 137.154C61.1813 137.154 60.4813 136.981 59.884 136.636C59.296 136.281 58.8433 135.782 58.526 135.138C58.2087 134.494 58.05 133.733 58.05 132.856V127.2H59.128V132.856C59.128 133.528 59.2447 134.111 59.478 134.606C59.7113 135.101 60.0427 135.488 60.472 135.768C60.9013 136.039 61.4053 136.174 61.984 136.174C62.5627 136.174 63.0667 136.039 63.496 135.768C63.9253 135.488 64.2567 135.101 64.49 134.606C64.7233 134.111 64.84 133.528 64.84 132.856V127.2H65.918V132.856C65.918 133.733 65.7593 134.494 65.442 135.138C65.1247 135.782 64.672 136.281 64.084 136.636C63.496 136.981 62.796 137.154 61.984 137.154ZM68.0168 137V130.168H69.0388V131.274C69.3001 130.863 69.6128 130.56 69.9768 130.364C70.3408 130.159 70.7515 130.056 71.2088 130.056C71.7035 130.056 72.1328 130.163 72.4968 130.378C72.8701 130.583 73.1595 130.877 73.3648 131.26C73.5795 131.633 73.6868 132.072 73.6868 132.576V137H72.6648V132.87C72.6648 132.263 72.4968 131.787 72.1608 131.442C71.8341 131.087 71.3908 130.91 70.8308 130.91C70.4575 130.91 70.1168 130.999 69.8088 131.176C69.5008 131.353 69.2441 131.615 69.0388 131.96V137H68.0168ZM78.8074 137.112C78.1727 137.112 77.5987 136.958 77.0854 136.65C76.5814 136.333 76.1801 135.908 75.8814 135.376C75.5827 134.835 75.4334 134.237 75.4334 133.584C75.4334 132.921 75.5827 132.324 75.8814 131.792C76.1801 131.26 76.5814 130.84 77.0854 130.532C77.5987 130.215 78.1727 130.056 78.8074 130.056C79.3114 130.056 79.7921 130.149 80.2494 130.336C80.7067 130.523 81.1034 130.784 81.4394 131.12L80.7814 131.834C80.5387 131.563 80.2447 131.353 79.8994 131.204C79.5541 131.055 79.2041 130.98 78.8494 130.98C78.4014 130.98 77.9954 131.097 77.6314 131.33C77.2767 131.563 76.9921 131.876 76.7774 132.268C76.5627 132.66 76.4554 133.099 76.4554 133.584C76.4554 134.069 76.5627 134.508 76.7774 134.9C76.9921 135.292 77.2767 135.605 77.6314 135.838C77.9954 136.071 78.4014 136.188 78.8494 136.188C79.2041 136.188 79.5541 136.113 79.8994 135.964C80.2447 135.805 80.5387 135.595 80.7814 135.334L81.4394 136.048C81.1034 136.384 80.7067 136.645 80.2494 136.832C79.7921 137.019 79.3114 137.112 78.8074 137.112ZM82.8645 137V126.892L83.8865 126.682V131.274C84.1478 130.863 84.4605 130.56 84.8245 130.364C85.1885 130.159 85.5991 130.056 86.0565 130.056C86.5511 130.056 86.9805 130.163 87.3445 130.378C87.7178 130.583 88.0071 130.877 88.2125 131.26C88.4271 131.633 88.5345 132.072 88.5345 132.576V137H87.5125V132.87C87.5125 132.263 87.3445 131.787 87.0085 131.442C86.6818 131.087 86.2385 130.91 85.6785 130.91C85.3051 130.91 84.9645 130.999 84.6565 131.176C84.3485 131.353 84.0918 131.615 83.8865 131.96V137H82.8645ZM93.6691 137.14C93.0344 137.14 92.4604 136.986 91.9471 136.678C91.4337 136.361 91.0277 135.936 90.7291 135.404C90.4304 134.863 90.2811 134.256 90.2811 133.584C90.2811 132.912 90.4211 132.31 90.7011 131.778C90.9904 131.246 91.3777 130.826 91.8631 130.518C92.3484 130.21 92.8897 130.056 93.4871 130.056C94.0937 130.056 94.6304 130.21 95.0971 130.518C95.5731 130.817 95.9464 131.227 96.2171 131.75C96.4971 132.263 96.6371 132.847 96.6371 133.5V133.808H91.2751C91.3124 134.275 91.4384 134.695 91.6531 135.068C91.8771 135.432 92.1664 135.721 92.5211 135.936C92.8851 136.141 93.2817 136.244 93.7111 136.244C94.0657 136.244 94.4064 136.183 94.7331 136.062C95.0691 135.931 95.3537 135.759 95.5871 135.544L96.2311 136.23C95.8391 136.538 95.4331 136.767 95.0131 136.916C94.5931 137.065 94.1451 137.14 93.6691 137.14ZM91.3031 133.08H95.6291C95.5824 132.669 95.4564 132.305 95.2511 131.988C95.0551 131.661 94.8031 131.405 94.4951 131.218C94.1964 131.031 93.8604 130.938 93.4871 130.938C93.1137 130.938 92.7731 131.031 92.4651 131.218C92.1571 131.395 91.9004 131.647 91.6951 131.974C91.4991 132.291 91.3684 132.66 91.3031 133.08ZM101.448 137.112C100.813 137.112 100.239 136.958 99.726 136.65C99.222 136.333 98.8207 135.908 98.522 135.376C98.2234 134.835 98.074 134.237 98.074 133.584C98.074 132.921 98.2234 132.324 98.522 131.792C98.8207 131.26 99.222 130.84 99.726 130.532C100.239 130.215 100.813 130.056 101.448 130.056C101.952 130.056 102.433 130.149 102.89 130.336C103.347 130.523 103.744 130.784 104.08 131.12L103.422 131.834C103.179 131.563 102.885 131.353 102.54 131.204C102.195 131.055 101.845 130.98 101.49 130.98C101.042 130.98 100.636 131.097 100.272 131.33C99.9174 131.563 99.6327 131.876 99.418 132.268C99.2034 132.66 99.096 133.099 99.096 133.584C99.096 134.069 99.2034 134.508 99.418 134.9C99.6327 135.292 99.9174 135.605 100.272 135.838C100.636 136.071 101.042 136.188 101.49 136.188C101.845 136.188 102.195 136.113 102.54 135.964C102.885 135.805 103.179 135.595 103.422 135.334L104.08 136.048C103.744 136.384 103.347 136.645 102.89 136.832C102.433 137.019 101.952 137.112 101.448 137.112ZM105.505 137V126.892L106.527 126.682V133.234L109.775 130.168H111.007L107.535 133.416L111.161 137H109.817L106.527 133.738V137H105.505ZM114.874 137.14C114.239 137.14 113.665 136.986 113.152 136.678C112.639 136.361 112.233 135.936 111.934 135.404C111.635 134.863 111.486 134.256 111.486 133.584C111.486 132.912 111.626 132.31 111.906 131.778C112.195 131.246 112.583 130.826 113.068 130.518C113.553 130.21 114.095 130.056 114.692 130.056C115.299 130.056 115.835 130.21 116.302 130.518C116.778 130.817 117.151 131.227 117.422 131.75C117.702 132.263 117.842 132.847 117.842 133.5V133.808H112.48C112.517 134.275 112.643 134.695 112.858 135.068C113.082 135.432 113.371 135.721 113.726 135.936C114.09 136.141 114.487 136.244 114.916 136.244C115.271 136.244 115.611 136.183 115.938 136.062C116.274 135.931 116.559 135.759 116.792 135.544L117.436 136.23C117.044 136.538 116.638 136.767 116.218 136.916C115.798 137.065 115.35 137.14 114.874 137.14ZM112.508 133.08H116.834C116.787 132.669 116.661 132.305 116.456 131.988C116.26 131.661 116.008 131.405 115.7 131.218C115.401 131.031 115.065 130.938 114.692 130.938C114.319 130.938 113.978 131.031 113.67 131.218C113.362 131.395 113.105 131.647 112.9 131.974C112.704 132.291 112.573 132.66 112.508 133.08ZM122.429 137.098C121.841 137.098 121.309 136.944 120.833 136.636C120.357 136.319 119.979 135.899 119.699 135.376C119.419 134.844 119.279 134.251 119.279 133.598C119.279 132.935 119.419 132.343 119.699 131.82C119.988 131.288 120.376 130.868 120.861 130.56C121.346 130.243 121.888 130.084 122.485 130.084C122.905 130.084 123.297 130.168 123.661 130.336C124.025 130.495 124.342 130.728 124.613 131.036V126.892L125.635 126.682V137H124.613V136.09C124.352 136.417 124.034 136.669 123.661 136.846C123.288 137.014 122.877 137.098 122.429 137.098ZM122.681 136.202C123.082 136.202 123.451 136.123 123.787 135.964C124.123 135.805 124.398 135.581 124.613 135.292V131.904C124.389 131.615 124.104 131.391 123.759 131.232C123.423 131.064 123.064 130.98 122.681 130.98C122.224 130.98 121.813 131.092 121.449 131.316C121.094 131.54 120.81 131.848 120.595 132.24C120.39 132.632 120.287 133.08 120.287 133.584C120.287 134.079 120.39 134.527 120.595 134.928C120.81 135.32 121.094 135.633 121.449 135.866C121.813 136.09 122.224 136.202 122.681 136.202Z" fill="#4D4D4D"/>
<path d="M227.246 45V35.2H231.292C231.927 35.2 232.477 35.3213 232.944 35.564C233.411 35.7973 233.77 36.1333 234.022 36.572C234.283 37.0013 234.414 37.51 234.414 38.098C234.414 38.6767 234.283 39.1853 234.022 39.624C233.77 40.0627 233.411 40.4033 232.944 40.646C232.477 40.8793 231.927 40.996 231.292 40.996H228.324V45H227.246ZM228.324 40.072H231.166C231.847 40.072 232.379 39.8947 232.762 39.54C233.145 39.1853 233.336 38.7047 233.336 38.098C233.336 37.4913 233.145 37.0153 232.762 36.67C232.379 36.3247 231.847 36.152 231.166 36.152H228.324V40.072ZM237.969 45.126C237.483 45.126 237.054 45.0373 236.681 44.86C236.307 44.6827 236.013 44.44 235.799 44.132C235.593 43.8147 235.491 43.4507 235.491 43.04C235.491 42.6293 235.598 42.2747 235.813 41.976C236.027 41.668 236.326 41.43 236.709 41.262C237.091 41.094 237.539 41.01 238.053 41.01C238.445 41.01 238.813 41.052 239.159 41.136C239.513 41.22 239.84 41.3553 240.139 41.542V40.604C240.139 40.044 239.989 39.624 239.691 39.344C239.392 39.0547 238.953 38.91 238.375 38.91C238.057 38.91 237.731 38.9567 237.395 39.05C237.068 39.1433 236.704 39.2927 236.303 39.498L235.925 38.714C236.839 38.2753 237.698 38.056 238.501 38.056C239.35 38.056 240.003 38.266 240.461 38.686C240.918 39.0967 241.147 39.6893 241.147 40.464V45H240.139V44.202C239.84 44.51 239.509 44.7433 239.145 44.902C238.781 45.0513 238.389 45.126 237.969 45.126ZM236.471 43.012C236.471 43.4133 236.625 43.7353 236.933 43.978C237.25 44.2207 237.665 44.342 238.179 44.342C238.561 44.342 238.911 44.2767 239.229 44.146C239.555 44.0153 239.859 43.8193 240.139 43.558V42.242C239.849 42.074 239.551 41.9527 239.243 41.878C238.935 41.794 238.589 41.752 238.207 41.752C237.684 41.752 237.264 41.8687 236.947 42.102C236.629 42.326 236.471 42.6293 236.471 43.012ZM243.224 45V38.168H244.246V39.568C244.423 39.092 244.675 38.7233 245.002 38.462C245.338 38.1913 245.72 38.056 246.15 38.056C246.271 38.056 246.383 38.0653 246.486 38.084C246.588 38.0933 246.691 38.1167 246.794 38.154V39.078C246.682 39.0407 246.56 39.0127 246.43 38.994C246.308 38.966 246.192 38.952 246.08 38.952C245.66 38.952 245.291 39.0733 244.974 39.316C244.666 39.5587 244.423 39.8993 244.246 40.338V45H243.224ZM250.75 45.14C250.162 45.14 249.714 45 249.406 44.72C249.107 44.4307 248.958 44.0153 248.958 43.474V39.008H247.544V38.168H248.958V36.292L249.98 36.054V38.168H251.94V39.008H249.98V43.208C249.98 43.572 250.054 43.8333 250.204 43.992C250.362 44.1507 250.619 44.23 250.974 44.23C251.151 44.23 251.31 44.216 251.45 44.188C251.59 44.16 251.753 44.1133 251.94 44.048V44.958C251.753 45.0233 251.557 45.07 251.352 45.098C251.146 45.126 250.946 45.14 250.75 45.14ZM253.423 45V38.168H254.445V45H253.423ZM253.941 36.474C253.735 36.474 253.558 36.404 253.409 36.264C253.269 36.1147 253.199 35.942 253.199 35.746C253.199 35.55 253.269 35.382 253.409 35.242C253.558 35.0927 253.735 35.018 253.941 35.018C254.146 35.018 254.319 35.0927 254.459 35.242C254.608 35.382 254.683 35.55 254.683 35.746C254.683 35.942 254.608 36.1147 254.459 36.264C254.319 36.404 254.146 36.474 253.941 36.474ZM258.654 45.126C258.169 45.126 257.74 45.0373 257.366 44.86C256.993 44.6827 256.699 44.44 256.484 44.132C256.279 43.8147 256.176 43.4507 256.176 43.04C256.176 42.6293 256.284 42.2747 256.498 41.976C256.713 41.668 257.012 41.43 257.394 41.262C257.777 41.094 258.225 41.01 258.738 41.01C259.13 41.01 259.499 41.052 259.844 41.136C260.199 41.22 260.526 41.3553 260.824 41.542V40.604C260.824 40.044 260.675 39.624 260.376 39.344C260.078 39.0547 259.639 38.91 259.06 38.91C258.743 38.91 258.416 38.9567 258.08 39.05C257.754 39.1433 257.39 39.2927 256.988 39.498L256.61 38.714C257.525 38.2753 258.384 38.056 259.186 38.056C260.036 38.056 260.689 38.266 261.146 38.686C261.604 39.0967 261.832 39.6893 261.832 40.464V45H260.824V44.202C260.526 44.51 260.194 44.7433 259.83 44.902C259.466 45.0513 259.074 45.126 258.654 45.126ZM257.156 43.012C257.156 43.4133 257.31 43.7353 257.618 43.978C257.936 44.2207 258.351 44.342 258.864 44.342C259.247 44.342 259.597 44.2767 259.914 44.146C260.241 44.0153 260.544 43.8193 260.824 43.558V42.242C260.535 42.074 260.236 41.9527 259.928 41.878C259.62 41.794 259.275 41.752 258.892 41.752C258.37 41.752 257.95 41.8687 257.632 42.102C257.315 42.326 257.156 42.6293 257.156 43.012ZM263.909 45V34.892L264.931 34.682V45H263.909ZM272.408 45.14C271.848 45.14 271.33 45.056 270.854 44.888C270.378 44.7107 269.972 44.4587 269.636 44.132L270.182 43.46C270.593 43.7587 270.971 43.978 271.316 44.118C271.661 44.2487 272.016 44.314 272.38 44.314C272.875 44.314 273.285 44.1973 273.612 43.964C273.939 43.7307 274.102 43.432 274.102 43.068C274.102 42.788 274.004 42.5687 273.808 42.41C273.621 42.2513 273.309 42.13 272.87 42.046L271.75 41.85C271.087 41.7287 270.597 41.5233 270.28 41.234C269.972 40.9447 269.818 40.5527 269.818 40.058C269.818 39.666 269.921 39.3207 270.126 39.022C270.341 38.7233 270.635 38.49 271.008 38.322C271.381 38.1447 271.806 38.056 272.282 38.056C272.749 38.056 273.192 38.126 273.612 38.266C274.032 38.3967 274.457 38.6113 274.886 38.91L274.382 39.624C274.027 39.372 273.673 39.19 273.318 39.078C272.963 38.9567 272.604 38.896 272.24 38.896C271.792 38.896 271.433 38.994 271.162 39.19C270.891 39.386 270.756 39.652 270.756 39.988C270.756 40.268 270.84 40.4827 271.008 40.632C271.185 40.7813 271.493 40.8933 271.932 40.968L273.08 41.178C273.771 41.2993 274.275 41.5093 274.592 41.808C274.909 42.1067 275.068 42.508 275.068 43.012C275.068 43.4133 274.951 43.7773 274.718 44.104C274.485 44.4213 274.167 44.6733 273.766 44.86C273.365 45.0467 272.912 45.14 272.408 45.14ZM279.773 45.14C279.138 45.14 278.564 44.986 278.051 44.678C277.537 44.3607 277.131 43.936 276.833 43.404C276.534 42.8627 276.385 42.256 276.385 41.584C276.385 40.912 276.525 40.31 276.805 39.778C277.094 39.246 277.481 38.826 277.967 38.518C278.452 38.21 278.993 38.056 279.591 38.056C280.197 38.056 280.734 38.21 281.201 38.518C281.677 38.8167 282.05 39.2273 282.321 39.75C282.601 40.2633 282.741 40.8467 282.741 41.5V41.808H277.379C277.416 42.2747 277.542 42.6947 277.757 43.068C277.981 43.432 278.27 43.7213 278.625 43.936C278.989 44.1413 279.385 44.244 279.815 44.244C280.169 44.244 280.51 44.1833 280.837 44.062C281.173 43.9313 281.457 43.7587 281.691 43.544L282.335 44.23C281.943 44.538 281.537 44.7667 281.117 44.916C280.697 45.0653 280.249 45.14 279.773 45.14ZM277.407 41.08H281.733C281.686 40.6693 281.56 40.3053 281.355 39.988C281.159 39.6613 280.907 39.4047 280.599 39.218C280.3 39.0313 279.964 38.938 279.591 38.938C279.217 38.938 278.877 39.0313 278.569 39.218C278.261 39.3953 278.004 39.6473 277.799 39.974C277.603 40.2913 277.472 40.66 277.407 41.08ZM284.486 45V34.892L285.508 34.682V45H284.486ZM290.683 45.14C290.048 45.14 289.474 44.986 288.961 44.678C288.447 44.3607 288.041 43.936 287.743 43.404C287.444 42.8627 287.295 42.256 287.295 41.584C287.295 40.912 287.435 40.31 287.715 39.778C288.004 39.246 288.391 38.826 288.877 38.518C289.362 38.21 289.903 38.056 290.501 38.056C291.107 38.056 291.644 38.21 292.111 38.518C292.587 38.8167 292.96 39.2273 293.231 39.75C293.511 40.2633 293.651 40.8467 293.651 41.5V41.808H288.289C288.326 42.2747 288.452 42.6947 288.667 43.068C288.891 43.432 289.18 43.7213 289.535 43.936C289.899 44.1413 290.295 44.244 290.725 44.244C291.079 44.244 291.42 44.1833 291.747 44.062C292.083 43.9313 292.367 43.7587 292.601 43.544L293.245 44.23C292.853 44.538 292.447 44.7667 292.027 44.916C291.607 45.0653 291.159 45.14 290.683 45.14ZM288.317 41.08H292.643C292.596 40.6693 292.47 40.3053 292.265 39.988C292.069 39.6613 291.817 39.4047 291.509 39.218C291.21 39.0313 290.874 38.938 290.501 38.938C290.127 38.938 289.787 39.0313 289.479 39.218C289.171 39.3953 288.914 39.6473 288.709 39.974C288.513 40.2913 288.382 40.66 288.317 41.08ZM298.462 45.112C297.827 45.112 297.253 44.958 296.74 44.65C296.236 44.3327 295.834 43.908 295.536 43.376C295.237 42.8347 295.088 42.2373 295.088 41.584C295.088 40.9213 295.237 40.324 295.536 39.792C295.834 39.26 296.236 38.84 296.74 38.532C297.253 38.2147 297.827 38.056 298.462 38.056C298.966 38.056 299.446 38.1493 299.904 38.336C300.361 38.5227 300.758 38.784 301.094 39.12L300.436 39.834C300.193 39.5633 299.899 39.3533 299.554 39.204C299.208 39.0547 298.858 38.98 298.504 38.98C298.056 38.98 297.65 39.0967 297.286 39.33C296.931 39.5633 296.646 39.876 296.432 40.268C296.217 40.66 296.11 41.0987 296.11 41.584C296.11 42.0693 296.217 42.508 296.432 42.9C296.646 43.292 296.931 43.6047 297.286 43.838C297.65 44.0713 298.056 44.188 298.504 44.188C298.858 44.188 299.208 44.1133 299.554 43.964C299.899 43.8053 300.193 43.5953 300.436 43.334L301.094 44.048C300.758 44.384 300.361 44.6453 299.904 44.832C299.446 45.0187 298.966 45.112 298.462 45.112ZM305.259 45.14C304.671 45.14 304.223 45 303.915 44.72C303.617 44.4307 303.467 44.0153 303.467 43.474V39.008H302.053V38.168H303.467V36.292L304.489 36.054V38.168H306.449V39.008H304.489V43.208C304.489 43.572 304.564 43.8333 304.713 43.992C304.872 44.1507 305.129 44.23 305.483 44.23C305.661 44.23 305.819 44.216 305.959 44.188C306.099 44.16 306.263 44.1133 306.449 44.048V44.958C306.263 45.0233 306.067 45.07 305.861 45.098C305.656 45.126 305.455 45.14 305.259 45.14ZM307.932 45V38.168H308.954V45H307.932ZM308.45 36.474C308.245 36.474 308.068 36.404 307.918 36.264C307.778 36.1147 307.708 35.942 307.708 35.746C307.708 35.55 307.778 35.382 307.918 35.242C308.068 35.0927 308.245 35.018 308.45 35.018C308.656 35.018 308.828 35.0927 308.968 35.242C309.118 35.382 309.192 35.55 309.192 35.746C309.192 35.942 309.118 36.1147 308.968 36.264C308.828 36.404 308.656 36.474 308.45 36.474ZM314.074 45.112C313.439 45.112 312.87 44.958 312.366 44.65C311.862 44.342 311.465 43.922 311.176 43.39C310.887 42.858 310.742 42.256 310.742 41.584C310.742 40.912 310.887 40.31 311.176 39.778C311.465 39.246 311.862 38.826 312.366 38.518C312.87 38.21 313.439 38.056 314.074 38.056C314.699 38.056 315.259 38.21 315.754 38.518C316.258 38.826 316.655 39.246 316.944 39.778C317.233 40.31 317.378 40.912 317.378 41.584C317.378 42.256 317.233 42.858 316.944 43.39C316.655 43.922 316.258 44.342 315.754 44.65C315.259 44.958 314.699 45.112 314.074 45.112ZM314.06 44.216C314.508 44.216 314.905 44.104 315.25 43.88C315.595 43.6467 315.866 43.3293 316.062 42.928C316.267 42.5267 316.37 42.0787 316.37 41.584C316.37 41.08 316.267 40.632 316.062 40.24C315.866 39.8387 315.595 39.526 315.25 39.302C314.905 39.0687 314.508 38.952 314.06 38.952C313.612 38.952 313.215 39.0687 312.87 39.302C312.525 39.526 312.249 39.8387 312.044 40.24C311.848 40.632 311.75 41.08 311.75 41.584C311.75 42.0787 311.848 42.5267 312.044 42.928C312.249 43.3293 312.525 43.6467 312.87 43.88C313.215 44.104 313.612 44.216 314.06 44.216ZM319.171 45V38.168H320.193V39.274C320.454 38.8633 320.767 38.56 321.131 38.364C321.495 38.1587 321.906 38.056 322.363 38.056C322.858 38.056 323.287 38.1633 323.651 38.378C324.024 38.5833 324.314 38.8773 324.519 39.26C324.734 39.6333 324.841 40.072 324.841 40.576V45H323.819V40.87C323.819 40.2633 323.651 39.7873 323.315 39.442C322.988 39.0873 322.545 38.91 321.985 38.91C321.612 38.91 321.271 38.9987 320.963 39.176C320.655 39.3533 320.398 39.6147 320.193 39.96V45H319.171Z" fill="#4D4D4D"/>
<path d="M236.246 137V127.2H242.938V128.152H237.324V131.652H241.16V132.59H237.324V137H236.246ZM246.47 137.112C245.985 137.112 245.556 137.005 245.182 136.79C244.809 136.575 244.515 136.277 244.3 135.894C244.095 135.511 243.992 135.073 243.992 134.578V130.168H245.028V134.284C245.028 134.891 245.192 135.371 245.518 135.726C245.845 136.081 246.288 136.258 246.848 136.258C247.231 136.258 247.572 136.169 247.87 135.992C248.178 135.815 248.435 135.558 248.64 135.222V130.168H249.662V137H248.64V135.894C248.379 136.295 248.066 136.599 247.702 136.804C247.348 137.009 246.937 137.112 246.47 137.112ZM251.759 137V126.892L252.781 126.682V137H251.759ZM254.876 137V126.892L255.898 126.682V137H254.876ZM263.375 137.14C262.815 137.14 262.297 137.056 261.821 136.888C261.345 136.711 260.939 136.459 260.603 136.132L261.149 135.46C261.56 135.759 261.938 135.978 262.283 136.118C262.628 136.249 262.983 136.314 263.347 136.314C263.842 136.314 264.252 136.197 264.579 135.964C264.906 135.731 265.069 135.432 265.069 135.068C265.069 134.788 264.971 134.569 264.775 134.41C264.588 134.251 264.276 134.13 263.837 134.046L262.717 133.85C262.054 133.729 261.564 133.523 261.247 133.234C260.939 132.945 260.785 132.553 260.785 132.058C260.785 131.666 260.888 131.321 261.093 131.022C261.308 130.723 261.602 130.49 261.975 130.322C262.348 130.145 262.773 130.056 263.249 130.056C263.716 130.056 264.159 130.126 264.579 130.266C264.999 130.397 265.424 130.611 265.853 130.91L265.349 131.624C264.994 131.372 264.64 131.19 264.285 131.078C263.93 130.957 263.571 130.896 263.207 130.896C262.759 130.896 262.4 130.994 262.129 131.19C261.858 131.386 261.723 131.652 261.723 131.988C261.723 132.268 261.807 132.483 261.975 132.632C262.152 132.781 262.46 132.893 262.899 132.968L264.047 133.178C264.738 133.299 265.242 133.509 265.559 133.808C265.876 134.107 266.035 134.508 266.035 135.012C266.035 135.413 265.918 135.777 265.685 136.104C265.452 136.421 265.134 136.673 264.733 136.86C264.332 137.047 263.879 137.14 263.375 137.14ZM270.739 137.14C270.105 137.14 269.531 136.986 269.017 136.678C268.504 136.361 268.098 135.936 267.799 135.404C267.501 134.863 267.351 134.256 267.351 133.584C267.351 132.912 267.491 132.31 267.771 131.778C268.061 131.246 268.448 130.826 268.933 130.518C269.419 130.21 269.96 130.056 270.557 130.056C271.164 130.056 271.701 130.21 272.167 130.518C272.643 130.817 273.017 131.227 273.287 131.75C273.567 132.263 273.707 132.847 273.707 133.5V133.808H268.345C268.383 134.275 268.509 134.695 268.723 135.068C268.947 135.432 269.237 135.721 269.591 135.936C269.955 136.141 270.352 136.244 270.781 136.244C271.136 136.244 271.477 136.183 271.803 136.062C272.139 135.931 272.424 135.759 272.657 135.544L273.301 136.23C272.909 136.538 272.503 136.767 272.083 136.916C271.663 137.065 271.215 137.14 270.739 137.14ZM268.373 133.08H272.699C272.653 132.669 272.527 132.305 272.321 131.988C272.125 131.661 271.873 131.405 271.565 131.218C271.267 131.031 270.931 130.938 270.557 130.938C270.184 130.938 269.843 131.031 269.535 131.218C269.227 131.395 268.971 131.647 268.765 131.974C268.569 132.291 268.439 132.66 268.373 133.08ZM275.452 137V126.892L276.474 126.682V137H275.452ZM281.65 137.14C281.015 137.14 280.441 136.986 279.928 136.678C279.414 136.361 279.008 135.936 278.71 135.404C278.411 134.863 278.262 134.256 278.262 133.584C278.262 132.912 278.402 132.31 278.682 131.778C278.971 131.246 279.358 130.826 279.844 130.518C280.329 130.21 280.87 130.056 281.468 130.056C282.074 130.056 282.611 130.21 283.078 130.518C283.554 130.817 283.927 131.227 284.198 131.75C284.478 132.263 284.618 132.847 284.618 133.5V133.808H279.256C279.293 134.275 279.419 134.695 279.634 135.068C279.858 135.432 280.147 135.721 280.502 135.936C280.866 136.141 281.262 136.244 281.692 136.244C282.046 136.244 282.387 136.183 282.714 136.062C283.05 135.931 283.334 135.759 283.568 135.544L284.212 136.23C283.82 136.538 283.414 136.767 282.994 136.916C282.574 137.065 282.126 137.14 281.65 137.14ZM279.284 133.08H283.61C283.563 132.669 283.437 132.305 283.232 131.988C283.036 131.661 282.784 131.405 282.476 131.218C282.177 131.031 281.841 130.938 281.468 130.938C281.094 130.938 280.754 131.031 280.446 131.218C280.138 131.395 279.881 131.647 279.676 131.974C279.48 132.291 279.349 132.66 279.284 133.08ZM289.428 137.112C288.794 137.112 288.22 136.958 287.707 136.65C287.203 136.333 286.801 135.908 286.503 135.376C286.204 134.835 286.055 134.237 286.055 133.584C286.055 132.921 286.204 132.324 286.503 131.792C286.801 131.26 287.203 130.84 287.707 130.532C288.22 130.215 288.794 130.056 289.428 130.056C289.933 130.056 290.413 130.149 290.871 130.336C291.328 130.523 291.725 130.784 292.061 131.12L291.403 131.834C291.16 131.563 290.866 131.353 290.521 131.204C290.175 131.055 289.825 130.98 289.471 130.98C289.023 130.98 288.617 131.097 288.253 131.33C287.898 131.563 287.613 131.876 287.399 132.268C287.184 132.66 287.077 133.099 287.077 133.584C287.077 134.069 287.184 134.508 287.399 134.9C287.613 135.292 287.898 135.605 288.253 135.838C288.617 136.071 289.023 136.188 289.471 136.188C289.825 136.188 290.175 136.113 290.521 135.964C290.866 135.805 291.16 135.595 291.403 135.334L292.061 136.048C291.725 136.384 291.328 136.645 290.871 136.832C290.413 137.019 289.933 137.112 289.428 137.112ZM296.226 137.14C295.638 137.14 295.19 137 294.882 136.72C294.584 136.431 294.434 136.015 294.434 135.474V131.008H293.02V130.168H294.434V128.292L295.456 128.054V130.168H297.416V131.008H295.456V135.208C295.456 135.572 295.531 135.833 295.68 135.992C295.839 136.151 296.096 136.23 296.45 136.23C296.628 136.23 296.786 136.216 296.926 136.188C297.066 136.16 297.23 136.113 297.416 136.048V136.958C297.23 137.023 297.034 137.07 296.828 137.098C296.623 137.126 296.422 137.14 296.226 137.14ZM298.899 137V130.168H299.921V137H298.899ZM299.417 128.474C299.212 128.474 299.035 128.404 298.885 128.264C298.745 128.115 298.675 127.942 298.675 127.746C298.675 127.55 298.745 127.382 298.885 127.242C299.035 127.093 299.212 127.018 299.417 127.018C299.623 127.018 299.795 127.093 299.935 127.242C300.085 127.382 300.159 127.55 300.159 127.746C300.159 127.942 300.085 128.115 299.935 128.264C299.795 128.404 299.623 128.474 299.417 128.474ZM305.041 137.112C304.406 137.112 303.837 136.958 303.333 136.65C302.829 136.342 302.432 135.922 302.143 135.39C301.853 134.858 301.709 134.256 301.709 133.584C301.709 132.912 301.853 132.31 302.143 131.778C302.432 131.246 302.829 130.826 303.333 130.518C303.837 130.21 304.406 130.056 305.041 130.056C305.666 130.056 306.226 130.21 306.721 130.518C307.225 130.826 307.621 131.246 307.911 131.778C308.2 132.31 308.345 132.912 308.345 133.584C308.345 134.256 308.2 134.858 307.911 135.39C307.621 135.922 307.225 136.342 306.721 136.65C306.226 136.958 305.666 137.112 305.041 137.112ZM305.027 136.216C305.475 136.216 305.871 136.104 306.217 135.88C306.562 135.647 306.833 135.329 307.029 134.928C307.234 134.527 307.337 134.079 307.337 133.584C307.337 133.08 307.234 132.632 307.029 132.24C306.833 131.839 306.562 131.526 306.217 131.302C305.871 131.069 305.475 130.952 305.027 130.952C304.579 130.952 304.182 131.069 303.837 131.302C303.491 131.526 303.216 131.839 303.011 132.24C302.815 132.632 302.717 133.08 302.717 133.584C302.717 134.079 302.815 134.527 303.011 134.928C303.216 135.329 303.491 135.647 303.837 135.88C304.182 136.104 304.579 136.216 305.027 136.216ZM310.138 137V130.168H311.16V131.274C311.421 130.863 311.734 130.56 312.098 130.364C312.462 130.159 312.873 130.056 313.33 130.056C313.825 130.056 314.254 130.163 314.618 130.378C314.991 130.583 315.281 130.877 315.486 131.26C315.701 131.633 315.808 132.072 315.808 132.576V137H314.786V132.87C314.786 132.263 314.618 131.787 314.282 131.442C313.955 131.087 313.512 130.91 312.952 130.91C312.579 130.91 312.238 130.999 311.93 131.176C311.622 131.353 311.365 131.615 311.16 131.96V137H310.138Z" fill="#4D4D4D"/>
</svg>
